<svg xmlns="http://www.w3.org/2000/svg" viewBox="0 0 697.36 537.3"><defs><style>.cls-1{fill:#99e1dc;}.cls-2{fill:#fff;}.cls-3{fill:#037a7d;}.cls-4{fill:#f69c9b;}.cls-5{fill:#4f494b;}.cls-6{opacity:0.5;}.cls-7{fill:#231f20;}</style></defs><g id="Layer_6" data-name="Layer 6"><path class="cls-1" d="M697.36,537.3V499.24c0-1.14,0-2.17,0-3.31,0-1.49,0-2.85,0-4.33.07-3,0-6,0-9V418.75c0-.94,0-1.58,0-2.64,0-1.42,0-2.48,0-3.79V389c0-1.48,0-2.59,0-4.16,0-1.09,0-2.25,0-3.35V335.8c0-19.94-.18-40-.08-59.94,0-3.14.19-8.93-1.29-11.8-1.4-2.71-6.75-2.35-9.48-2.37-41.75-.3-83.61-1.45-125.27.29l-27,1.13c-6.32,0-12.63.39-19,.68-49,2.28-99.11,13.26-146.89,24.44-49.2,11.5-97.73,26.25-144.46,45.54a452.57,452.57,0,0,0-54.1,26.69A464.29,464.29,0,0,0,74.3,433.82a455.89,455.89,0,0,0-50.36,59.73c-4.26,6-8.58,12-12.61,18.21-2,3.1-3.94,6.25-5.75,9.47a70.37,70.37,0,0,0-3.78,7.45,25.18,25.18,0,0,0-1.73,8.57"/></g><g id="Layer_7" data-name="Layer 7"><path class="cls-2" d="M457.24,66.66c0,.26,0,.52,0,.77v2.76c0,1-.14,2.07-.14,3.12,0,.72,0,1.44,0,2.15a17.22,17.22,0,0,1-.41,1.8c-.08.48-.14,1-.19,1.45-.09,1-.34,1.91-.38,2.87a8.34,8.34,0,0,1-.16.87,9.79,9.79,0,0,0,0,1.21c0,.66-.15,1.3-.14,2a15.24,15.24,0,0,1-.67,3.7c-.19.79-.35,1.61-.5,2.41s0,1.79-.25,2.61c-.14.52-.31,1.07-.44,1.61-.31,1.21-.56,2.44-.92,3.64-.43,1.46-1.07,2.83-1.49,4.28a15.07,15.07,0,0,0-.49,1.71,8.45,8.45,0,0,1-.13,1,9.81,9.81,0,0,1-.39,1.41,27.67,27.67,0,0,0-1.06,3.76l-.6,2.07a7.5,7.5,0,0,0-.36,1.2,4.09,4.09,0,0,1,0,.61c-.1.37-.33.74-.46,1.1s-.13.48-.22.72c-.24.68-.53,1.33-.77,2a38.53,38.53,0,0,1-1.79,4.61c-.12.24-.32.43-.44.67s-.12.4-.2.59a10.47,10.47,0,0,0-.53,1.73c-.07.32,0,.63-.06,1a3.47,3.47,0,0,1-.29.73,13.27,13.27,0,0,1-.86,1.57c-.3.57-.43,1.2-.71,1.77a17.15,17.15,0,0,1-1,1.88,20.77,20.77,0,0,0-1.47,2.33c-.25.48-.48,1-.7,1.46-.1.21-.2.43-.32.63a2.09,2.09,0,0,0-.22.28s0,.18-.06.24-.28.23-.37.4a2.92,2.92,0,0,1-.23.47,6.17,6.17,0,0,0-.38.72,9.08,9.08,0,0,1-1.73,2.16c-.66.6-1.33,1.19-2,1.84a5.23,5.23,0,0,1-1.93,1.23,22.81,22.81,0,0,1-3.25.84,18.63,18.63,0,0,1-3.66.1c-.62,0-1.17.11-1.77.15s-1.18,0-1.76,0-.93,0-1.39,0a6.38,6.38,0,0,0-1.68.25c-1.39.36-2.77.46-4.19.7a4.52,4.52,0,0,0-2.26,1.31c-.21.21-.44.34-.66.55a8.49,8.49,0,0,1-1,.88c-.53.36-1.11.65-1.6,1s-.74.92-1.2,1.3a5.41,5.41,0,0,0-1.12,1.21,4.11,4.11,0,0,0-.69,1.64c-.1.78,0,1.6,0,2.39,0,.61-.23,1.19-.29,1.8a4.9,4.9,0,0,1-.27,1.36,10.75,10.75,0,0,0-.29,4,22.72,22.72,0,0,1-.26,3.08c-.07.52-.27,1-.34,1.51a7.19,7.19,0,0,1-.63,1.9,16.13,16.13,0,0,0-.74,2.52,4.39,4.39,0,0,1-.56,1,16.74,16.74,0,0,1-2,3,8.46,8.46,0,0,0-1.23,2.2,7.52,7.52,0,0,1-.61,1.33,16.65,16.65,0,0,0-1.12,1.53,3.13,3.13,0,0,1-.55.84,10,10,0,0,0-2,2.77,11.64,11.64,0,0,0-.85,2.11,7,7,0,0,1-.79,1.44,27,27,0,0,0-1.41,2.79,5.3,5.3,0,0,1-.42.73A2.74,2.74,0,0,0,391,195a24.41,24.41,0,0,1-.83,2.35,4.83,4.83,0,0,1-.51,1.39,2.18,2.18,0,0,0-.28,1,10.47,10.47,0,0,1-1,2.53,8.38,8.38,0,0,0-.48,2,5.79,5.79,0,0,1-.52,2.25,4.2,4.2,0,0,1-.79.66c-.22.19-.46.54-.74.62a1.29,1.29,0,0,1-1.15-.58,7.16,7.16,0,0,1-.39-1.27,9.91,9.91,0,0,1-.56-3.38,11.15,11.15,0,0,0-.18-1.72c-.09-.58,0-1.12-.1-1.7a18.12,18.12,0,0,1-.28-1.94,19,19,0,0,0-.39-2.57c-.08-.58-.1-1.15-.21-1.73a12.76,12.76,0,0,1-.1-1.51,19.12,19.12,0,0,0-.51-2.59c-.26-1.07-.5-2.13-.73-3.18s-.36-1.86-.49-2.78a10.92,10.92,0,0,0-.31-2c-.11-.3-.24-.6-.32-.91-.19-.79-.51-1.51-.77-2.27a6.83,6.83,0,0,0-.56-1.23,4.7,4.7,0,0,1-.53-1,6.07,6.07,0,0,1-.21-.84,10.9,10.9,0,0,0-.41-1.26c-.16-.45-.2-.93-.37-1.38-.24-.67-.31-1.37-.55-2a9.23,9.23,0,0,0-.58-1.33,5.29,5.29,0,0,1-.21-.67,17.1,17.1,0,0,1-1-3.41c-.08-.44-.05-.87-.14-1.31s-.13-.63-.22-.94a7.46,7.46,0,0,1-.23-1.94,11.55,11.55,0,0,0-.46-2.56,11.86,11.86,0,0,1-.14-1.18c-.07-.42-.21-.84-.29-1.27s-.14-.92-.21-1.39a15,15,0,0,0-.35-2.23c-.21-.7-.24-1.42-.42-2.12a7.32,7.32,0,0,1-.24-1.45,10.27,10.27,0,0,0-.64-1.78,10.63,10.63,0,0,1-.36-1.58,29.56,29.56,0,0,1-.13-3.41c0-.64-.14-1.24-.14-1.89a7.33,7.33,0,0,0,0-.81,6.22,6.22,0,0,1-.15-.75,7.88,7.88,0,0,0,0-.84,5.08,5.08,0,0,1-.15-.59,9.81,9.81,0,0,0-.29-1.51c-.11-.48-.07-1-.16-1.45a5.6,5.6,0,0,1-.11-1.36c0-.56-.14-1-.14-1.61v-1.94a7.65,7.65,0,0,1,0-1.79,10,10,0,0,0,.12-1.35,13.8,13.8,0,0,0,.13-1.82V121a2.66,2.66,0,0,1,0-.63,2.54,2.54,0,0,0,.13-.56c0-.49,0-1,0-1.48s.15-.72.14-1.12c0-.62.19-1.24.12-1.87,0-.22-.08-.44-.1-.66a4.75,4.75,0,0,1,.25-2A4.65,4.65,0,0,1,371,112c.07-.17.15-.34.21-.52a14.51,14.51,0,0,0,.51-1.39c.18-.83.37-1.66.58-2.48.08-.32.13-.65.21-1s0-.49,0-.72.13-.22.15-.4a5.71,5.71,0,0,0-.13-2.26,2.24,2.24,0,0,0-1.49-1.47c-.11,0-.29-.15-.38-.18s-.37,0-.56-.06a6.46,6.46,0,0,1-1.66-.78c-.35-.17-.65-.4-1-.6-.55-.33-1.18-.48-1.73-.84a4.67,4.67,0,0,1-1.09-.77,9.42,9.42,0,0,1-.56-1,4.17,4.17,0,0,1-.63-1.2c-.16-.61-.25-1.28-.35-1.89-.15-1-.56-2-.8-3a9.21,9.21,0,0,1-.47-2.19c0-.68-.12-1.31-.14-2-.05-2.27-.05-4.54-.07-6.82a3,3,0,0,1,.18-.93,7.91,7.91,0,0,1,.36-1.07,12.22,12.22,0,0,1,.59-1.07c.07-.12.1-.26.17-.38a4.66,4.66,0,0,0,.32-.53,4.93,4.93,0,0,1,.61-1c.16-.22.25-.48.42-.71s.33-.43.49-.66a9.32,9.32,0,0,1,1.34-1.6,5.67,5.67,0,0,1,1.21-1,6.38,6.38,0,0,1,1.07-.48A11.16,11.16,0,0,1,369.5,71c.41-.09.84,0,1.24-.1a3.5,3.5,0,0,1,1,0c.39,0,.8.19,1.18.26a5.27,5.27,0,0,1,1.88.79c.42.29.93.41,1.35.73a6,6,0,0,1,1,.7,3,3,0,0,0,1.26.67c.59.23,1.26.39,1.82.66a6.74,6.74,0,0,1,.82.58,3.06,3.06,0,0,0,1.29.34,12.94,12.94,0,0,0,3.83,0,9.79,9.79,0,0,0,3-.76l.65-.35a7,7,0,0,1,1.33-.46c.35-.13.68-.19,1-.35.54-.24,1.09-.42,1.63-.66a12.41,12.41,0,0,1,1.58-.72,7,7,0,0,0,1.18-.35A7.23,7.23,0,0,0,398,71a8.37,8.37,0,0,1,.62-.57c.2-.14.45-.21.67-.34a7.19,7.19,0,0,1,1.27-.64,4.28,4.28,0,0,0,.88-.27,5,5,0,0,0,.56-.47,14.13,14.13,0,0,1,1.56-1.21c.29-.17.64-.26.95-.41.47-.22.93-.42,1.38-.65a1.93,1.93,0,0,0,.59-.55,12,12,0,0,1,1.64-1.36c.49-.37.91-.8,1.42-1.15a2.27,2.27,0,0,0,.69-.58c.31-.45.56-.93.9-1.36a7.82,7.82,0,0,1,1-1,3.85,3.85,0,0,0,.59-.69c.26-.35.41-.79.67-1.12.11-.13.23-.16.34-.27a8.16,8.16,0,0,0,.53-.73c.58-.68,1.21-1.33,1.85-1.95a15.25,15.25,0,0,1,2.49-2c.64-.4,1.3-.72,1.92-1.13s1.37-.67,2.05-1c.93-.48,1.83-1,2.72-1.53a11.87,11.87,0,0,1,2.83-1.1,8.16,8.16,0,0,1,1.09-.15,4.74,4.74,0,0,1,.84-.13c.7,0,1.4,0,2.09,0,1.21.1,2.39.25,3.6.26h2.52a14.42,14.42,0,0,1,2.37.1,6.47,6.47,0,0,1,.87.11c.4.14.77.37,1.19.48a13.54,13.54,0,0,1,2.28.83,12.39,12.39,0,0,1,1.73.72c.54.36,1.17.63,1.73,1s1.11,1,1.76,1.38a11.8,11.8,0,0,1,1.29.94c.46.33.8.79,1.26,1.12.23.16.48.29.71.45a4.66,4.66,0,0,1,.81.79,14.58,14.58,0,0,0,1.07,1,5.48,5.48,0,0,1,.9,1.19,3.79,3.79,0,0,1,.6,1.12c.2,1.22.11,2.48.3,3.69.05.38.22.72.26,1.09A10.4,10.4,0,0,1,457.24,66.66Z"/><path class="cls-2" d="M456,66.66c0,1.93,0,3.83-.11,5.76,0,.87,0,1.74,0,2.61a24.6,24.6,0,0,1-.46,2.54,47.56,47.56,0,0,0-.7,5.27,26,26,0,0,1-.62,5.7c-.43,1.75-.55,3.46-.83,5.21a42.35,42.35,0,0,1-1.46,5.74c-.56,1.79-1.37,3.51-1.82,5.34-.19.77-.21,1.56-.44,2.33s-.61,1.7-.82,2.59c-.42,1.71-1.11,3.41-1.4,5.13a32.59,32.59,0,0,1-1.68,4.9c-.3.87-.59,1.75-.95,2.6s-.86,1.52-1.16,2.34a12.2,12.2,0,0,0-.67,2.36,7.86,7.86,0,0,1-1,2.62c-.35.69-.56,1.45-.9,2.15a19.45,19.45,0,0,1-1.4,2.31c-.89,1.35-1.44,2.89-2.29,4.24.09-.14,0-.17-.2.16a6.44,6.44,0,0,0-.42.78,8.93,8.93,0,0,1-1.53,2.18c-1.3,1.3-2.63,2.73-4.43,3.27a18.23,18.23,0,0,1-5.55.65c-.89,0-1.77.15-2.66.15-1,0-2.09-.08-3.13,0-.86.09-1.68.35-2.53.5s-2,.23-3,.46c-1.65.37-2.72,1.59-4,2.64-.58.48-1.27.81-1.87,1.26a22.5,22.5,0,0,0-1.61,1.63,6,6,0,0,0-2.06,4.07,25.74,25.74,0,0,1-.17,3.16c-.13.81-.37,1.56-.53,2.36-.34,1.67,0,3.41-.19,5.1A22.21,22.21,0,0,1,402,172a9.76,9.76,0,0,1-.84,2.4c-.52.8-.93,1.67-1.51,2.43a11.75,11.75,0,0,0-1.52,2.3,12.4,12.4,0,0,1-1.15,2.27c-.43.57-.77,1.2-1.2,1.77a25.91,25.91,0,0,0-1.67,2.09,14.83,14.83,0,0,0-1.2,2.47,22.18,22.18,0,0,1-1.27,2.59,15.45,15.45,0,0,0-1.88,4.27c-.3,1.64-1.26,3.11-1.61,4.73s-1.26,3-1.5,4.66a3.05,3.05,0,0,1-.57,1.9c-.15.15-.36.25-.51.41-.31.33.1,0,.14.11-.11-.36-.17-.73-.28-1.1a22.94,22.94,0,0,1-.69-5.42,44.54,44.54,0,0,0-.69-5.26c-.29-1.73-.27-3.48-.63-5.19-.42-2-.95-3.89-1.29-5.87a30.31,30.31,0,0,0-1-4.81c-.58-1.73-1.44-3.3-2-5-.47-1.56-.8-3.23-1.41-4.75a20.82,20.82,0,0,1-1.63-5.22c-.1-.86-.33-1.69-.46-2.54s-.09-1.76-.26-2.63c-.36-1.81-.76-3.62-1-5.45s-.7-3.51-.95-5.29a13.8,13.8,0,0,0-.72-2.14,11.1,11.1,0,0,1-.38-3c-.05-1.79-.17-3.56-.27-5.34-.1-1.54-.55-3-.69-4.58a37,37,0,0,1-.2-5.57c.11-1.8.31-3.56.31-5.37s.15-3.46.3-5.18c.08-.86,0-1.63,0-2.49a6.33,6.33,0,0,1,.53-2.26,29.9,29.9,0,0,0,1.32-4.82,9.48,9.48,0,0,0,.18-3.87,3.83,3.83,0,0,0-2.54-2.74,11.77,11.77,0,0,1-1.89-.66c-.73-.41-1.42-.85-2.18-1.19a4,4,0,0,1-1.79-1.23,6.19,6.19,0,0,1-1-2.36c-.3-1.7-.87-3.31-1.26-5a26.32,26.32,0,0,1-.3-5.68c0-1.78-.32-3.76.43-5.42a23.06,23.06,0,0,1,2.63-4.33,7.82,7.82,0,0,1,1.79-1.84,5,5,0,0,1,2.6-.64,8.1,8.1,0,0,1,4.83,1.34c.59.33,1.07.78,1.62,1.14a10.17,10.17,0,0,0,2.22.88c.7.25,1.2.75,1.88,1a8.4,8.4,0,0,0,2.29.4c3.4.31,6.42-.87,9.5-2.11.87-.34,1.71-.73,2.56-1.11a14.75,14.75,0,0,0,2.55-1c.69-.47,1.26-1.09,2-1.51a19,19,0,0,1,2-.86,11.38,11.38,0,0,0,1.9-1.45,11.22,11.22,0,0,1,2.16-1.09A18,18,0,0,0,409.45,65a16,16,0,0,0,1.68-1.38c.56-.65.89-1.42,1.5-2A24.68,24.68,0,0,0,415,58.7c2.25-2.94,5.19-4.56,8.4-6.24,1.72-.89,3.31-2.07,5.25-2.43a19.93,19.93,0,0,1,5.29,0c1.91.15,3.83,0,5.75.1a17,17,0,0,1,5.12,1.53,19.1,19.1,0,0,1,4.31,2.6,35.74,35.74,0,0,1,4,3.12c1.14,1.11,2.47,2.2,2.58,3.88a31.66,31.66,0,0,1,.29,5.4c-.18,1.6,2.33,1.59,2.5,0a7.61,7.61,0,0,0,0-2.65,24.57,24.57,0,0,1-.31-3.21,6.39,6.39,0,0,0-2.08-4,43.51,43.51,0,0,0-8.24-6.45,24.64,24.64,0,0,0-4.62-1.93,12.39,12.39,0,0,0-2.59-.69,31.2,31.2,0,0,0-3.21-.1c-3.72,0-7.5-.83-11.08.49-1.8.67-3.36,1.82-5.09,2.63a23.93,23.93,0,0,0-4.67,2.83,26.15,26.15,0,0,0-3.6,3.69,11.82,11.82,0,0,0-1.16,1.53,19.41,19.41,0,0,1-1.55,1.72,10.39,10.39,0,0,1-1.49,1.86L406.7,64a15.14,15.14,0,0,1-1.76,1.46c-.75.41-1.6.62-2.32,1.1s-1.12,1.08-1.76,1.44-1.28.44-1.87.76a12,12,0,0,0-2,1.42,11.09,11.09,0,0,1-2.8,1.28c-.88.4-1.74.83-2.65,1.15a19.12,19.12,0,0,0-2.31.8A11,11,0,0,1,384,74.51a5.23,5.23,0,0,1-2.48-.43A10.88,10.88,0,0,0,379.29,73a29.64,29.64,0,0,1-4.24-2.39c-2.8-1.52-7-1.46-9.42.69a17.31,17.31,0,0,0-3.31,4.25,13.25,13.25,0,0,0-1.9,4.3,33.45,33.45,0,0,0,0,6.25,21.43,21.43,0,0,0,.58,5.36c.22.83.49,1.65.71,2.48s.27,1.85.53,2.74a6.41,6.41,0,0,0,2.72,3.62c.71.43,1.48.71,2.19,1.14a11.38,11.38,0,0,0,2.26,1.2c.32.1.65.09,1,.17-.4-.1.22.11.34.17.78.44.82,1.33.72,2.16a29.37,29.37,0,0,1-1,4.79c-.47,1.57-1.26,3-1.11,4.7a24.07,24.07,0,0,1-.25,5.36c-.25,1.83,0,3.76-.2,5.61a41,41,0,0,0,.57,10.78,32.57,32.57,0,0,1,.42,5.13,14.94,14.94,0,0,0,.79,5.72,27.74,27.74,0,0,1,1.15,5.14c.39,1.93.51,3.92.94,5.84a20.21,20.21,0,0,1,.39,2.81c.09,1,.41,2,.51,3a17.71,17.71,0,0,0,1.44,5.15c.7,1.64,1,3.37,1.6,5.06a13.61,13.61,0,0,0,.85,2.47,18.18,18.18,0,0,1,1.18,2.76,36.31,36.31,0,0,1,1.08,5c.36,2,1,4,1.34,6.07.34,1.84.38,3.75.72,5.61s.4,3.64.61,5.45a27.08,27.08,0,0,0,.86,5.37c.4,1.29,1.78,2.45,3.18,1.8a4.58,4.58,0,0,0,2.49-3.29,18.62,18.62,0,0,1,.41-2.37c.26-.89.8-1.67,1.06-2.55.48-1.63,1.21-3.22,1.66-4.86.1-.36.06-.78.18-1.13a8.46,8.46,0,0,1,.44-.77c.46-.94.88-1.89,1.41-2.79,1-1.7,1.44-3.66,2.68-5.23a21.67,21.67,0,0,0,2.95-4.12,17.24,17.24,0,0,1,1-2.18c.53-.87,1.25-1.62,1.79-2.49a14.53,14.53,0,0,0,1.3-2.26c.35-1,.5-2,.89-2.9a17.17,17.17,0,0,0,1.12-5.27c.15-1.83-.07-3.53.41-5.32a21.72,21.72,0,0,0,.43-2.54c.15-1.05-.18-2.2.16-3.21a5.92,5.92,0,0,1,1.61-2,9.67,9.67,0,0,1,2-1.69c1.34-.88,2.36-2.43,3.95-2.82,1-.24,2-.28,3-.46a17.25,17.25,0,0,1,3.19-.44c2,0,4-.1,6.07-.11a15.87,15.87,0,0,0,5.4-1c1.75-.64,2.95-2,4.29-3.24a12,12,0,0,0,1.67-1.89c.35-.52.86-1.6,1-1.82s.36-.47.52-.74c0,0,.09-.23,0-.05s.22-.28.24-.33c.43-.73.71-1.54,1.13-2.28a37.78,37.78,0,0,0,2.65-4.68,22.32,22.32,0,0,1,1.09-2.19,11.38,11.38,0,0,0,.72-2.75c.41-1.76,1.49-3.33,2.11-5s1.27-3.65,2-5.43c.3-.74.34-1.56.58-2.33.31-1,.58-1.93.82-2.91.88-3.62,1.95-7.14,3.14-10.67a60.45,60.45,0,0,0,1.56-5.91c.21-.91.16-1.84.29-2.76s.36-1.82.58-2.71c.95-3.81.67-7.77,1.41-11.62a14.45,14.45,0,0,0,.46-2.34c0-.87,0-1.74,0-2.61.08-2,.1-4,.12-6A1.25,1.25,0,0,0,456,66.66Z"/><path class="cls-2" d="M426,453.65q22-4.68,43.39-11.5c4.62-1.47-7.24-20.12-8.57-21.74-3-3.66-6.22-7.16-9.43-10.65-1.61-1.75-3.22-3.5-4.81-5.27l-1.14-1.28c-.42-.47-.64-1-1.21-.73-.41.21-.84,1-1.15,1.33l-1.24,1.45-2.4,2.77a3.13,3.13,0,0,1-2.1,1.39,3.37,3.37,0,0,1-2.12-1.07,30.51,30.51,0,0,0-14.39-6.67,36.52,36.52,0,0,0-.33,17.75l-5.24,1.67a30.06,30.06,0,0,0-4.36,2.09,76.94,76.94,0,0,1-9.5,3.77c-14.29,4.93-29.2,9.93-44.19,8-10.14-1.32-19.61-5.76-29.6-8-7.47-1.65-15.82-1.9-22.93,1.34a42.88,42.88,0,0,0-5.3,3.38,8.1,8.1,0,0,0-2.33,1.8,7.65,7.65,0,0,0-1.41,3,7.51,7.51,0,0,0,1,5.51,10.1,10.1,0,0,0-6.39,4.12,5.09,5.09,0,0,0-1,2.8,2.6,2.6,0,0,0,1.48,2.44,2.57,2.57,0,0,0-1.42,2.35,3.79,3.79,0,0,0,1.16,2.6,7.75,7.75,0,0,0,2.43,1.59,16.06,16.06,0,0,0,2.79.94,10.91,10.91,0,0,1,2.6.59,12.27,12.27,0,0,0,4.58,1.31c3.37.36,6.92,0,10.19,1,6.18,1.86,11.73,2,18.29,2A457.87,457.87,0,0,0,378,461.25,460.69,460.69,0,0,0,426,453.65Z"/><path class="cls-2" d="M426.33,454.86q16.71-3.57,33.12-8.36c2.74-.8,5.46-1.63,8.18-2.48,1.26-.39,2.88-.6,3.61-1.84,1-1.71.24-4.11-.35-5.81a69.63,69.63,0,0,0-7.54-14.47,57,57,0,0,0-5.18-6.52c-3.6-4.09-7.36-8-11-12.09-.7-.78-1.45-2.13-2.64-2.14s-1.73,1-2.34,1.78c-.91,1.16-1.93,2.24-2.89,3.35a11.85,11.85,0,0,1-1.43,1.57c-.75.59-1.3,0-1.94-.52a32.27,32.27,0,0,0-14.78-6.86,1.3,1.3,0,0,0-1.54.88,38.47,38.47,0,0,0-.32,18.41l.87-1.54a59.1,59.1,0,0,0-7,2.37c-2.1,1-4.08,2.14-6.23,3-4.45,1.8-9.06,3.28-13.62,4.77-9.24,3-18.78,5.62-28.56,5.74-9.54.12-18.36-2.88-27.34-5.72-8.5-2.68-17.34-4.87-26.29-3.35a28.2,28.2,0,0,0-6.9,2.09c-2.17,1-4,2.53-6,3.78a8.51,8.51,0,0,0-2.72,11.72l.75-1.84a11.48,11.48,0,0,0-6.92,4.4c-1.62,2.18-2.25,5.81.67,7.24v-2.15a3.94,3.94,0,0,0-1.94,4.31,6.37,6.37,0,0,0,3.73,4.21,17.21,17.21,0,0,0,2.85,1.08,24.28,24.28,0,0,1,3.11.73,18.76,18.76,0,0,0,6.35,1.49,56.82,56.82,0,0,1,7,.47c2.29.43,4.5,1.21,6.82,1.6a82.75,82.75,0,0,0,13.81.81,459.51,459.51,0,0,0,60.67-4.23q17-2.31,33.87-5.89c1.57-.34.91-2.75-.66-2.42a456.39,456.39,0,0,1-56.27,8.37q-14.1,1.21-28.26,1.54c-8.89.21-18.25.84-26.9-1.57a29.83,29.83,0,0,0-7-1.06,24.56,24.56,0,0,1-7.1-.81,20,20,0,0,0-3.07-1.09,14.78,14.78,0,0,1-3.39-.91,5.81,5.81,0,0,1-2.79-2,1.66,1.66,0,0,1,.39-2.53,1.25,1.25,0,0,0,0-2.15c-2.05-1,0-3.67,1-4.69A9.17,9.17,0,0,1,297,443.2a1.25,1.25,0,0,0,.75-1.83,6.29,6.29,0,0,1-.35-6c.9-1.83,2.8-2.65,4.4-3.78a24.38,24.38,0,0,1,11.66-4.34c8.71-1,17.14,1.57,25.33,4.2,8.6,2.76,17.14,5.33,26.27,5.18s18.21-2.41,26.93-5.17c4.9-1.55,9.81-3.16,14.6-5a58,58,0,0,0,6.56-3,45.76,45.76,0,0,1,7.73-2.81,1.28,1.28,0,0,0,.88-1.54A35.76,35.76,0,0,1,422,402l-1.54.87a30,30,0,0,1,12.77,5.5c1.72,1.28,3.47,3.18,5.72,1.77a10.76,10.76,0,0,0,2.24-2.28c.87-1,1.74-2,2.59-3,.16-.2.77-.77.79-1s-.5-.58-.38-.18c.06.21.34.41.48.58.84,1,1.72,1.92,2.59,2.88,1.76,1.93,3.54,3.84,5.3,5.77s3.51,3.87,5.21,5.85c.73.85,1.47,1.7,2.17,2.58-.29-.36.21.31.3.44a81.87,81.87,0,0,1,7.13,12.56c.81,1.81,1.84,4,1.8,6,0,.31,0,.12,0,.29s-.1.49-.05.22c0,.22-.05.13-.1.15.22-.07.08-.05,0,0l0,0c.2-.09.06-.05-.42.13-2.48.76-5,1.55-7.46,2.29q-17.53,5.24-35.46,9.05C424.09,452.78,424.76,455.19,426.33,454.86Z"/><path class="cls-2" d="M530.9,428.16q9-3.66,17.71-8.18,6.32-3.28,12.4-7c1.14-.7,2.55-1.44,3.75-.84a3.91,3.91,0,0,1,1.66,2.71c.55,2.16,1,4.46.3,6.59s-2.79,3.95-5,3.56c1.06,1.17,2.87,3.21,2.86,4.89a4.48,4.48,0,0,1-2.67,3.92c-2.09.62-1.35,1.91-1.64,3.68a6.49,6.49,0,0,1-3.72,4.61c-2.52,1.17-5.42,1-8.19.88l-51.31-2.89a4.37,4.37,0,0,1-2.57-.7c-.69-.57-.87-1.84-.1-2.31q9.51-1.17,18.91-3.1c2.87-.59,6.35-.89,8.9-2.36S528.08,429.31,530.9,428.16Z"/><path class="cls-2" d="M531.24,429.37a210.54,210.54,0,0,0,23.84-11.47c1.94-1.09,3.85-2.2,5.75-3.35.79-.48,1.85-1.37,2.81-1.38s1.25.89,1.48,1.69c.57,1.94,1.09,4.27.4,6.25a3.61,3.61,0,0,1-3.78,2.64c-1.16-.15-1.53,1.41-.88,2.13,1.28,1.42,3.14,3.26,2.14,5.29-.89,1.8-3.29,1.59-3.77,3.72-.17.76,0,1.53-.15,2.29a5,5,0,0,1-1.74,3c-2,1.72-4.91,1.75-7.42,1.66-12-.43-23.95-1.33-35.91-2l-10-.56-5.23-.29c-.78-.05-1.58-.05-2.35-.15-.27,0-1.76-.34-1.18-.83l-.88.37c6.79-.85,13.47-2.1,20.2-3.33,2.75-.51,5.57-.87,8.07-2.21a79.26,79.26,0,0,1,8.57-3.42c1.47-.59.83-3-.67-2.41-2,.79-4,1.39-6,2.19s-3.62,1.89-5.59,2.44-4,.78-6,1.18c-2.41.48-4.82,1-7.24,1.37s-4.85.81-7.28,1.15l-3.81.51a2.05,2.05,0,0,0-1.82,1.36,3,3,0,0,0,2,3.81,10.38,10.38,0,0,0,3,.41l3.73.21,29.9,1.68,14.94.85c4.08.23,8.84.83,12.29-1.87a7.32,7.32,0,0,0,2.9-5.07c0-.48-.15-1.47.14-1.89s.69-.31,1-.44a4.59,4.59,0,0,0,1.21-.79,5.59,5.59,0,0,0,1.85-4.95c-.38-1.95-1.85-3.57-3.14-5l-.88,2.14c3.4.43,6-2.66,6.47-5.77a14.91,14.91,0,0,0-.53-5.75c-.36-1.41-.91-3-2.28-3.67-1.55-.81-3.27-.17-4.67.63-1.84,1-3.63,2.18-5.46,3.23q-5.57,3.19-11.33,6-6.57,3.24-13.37,6C529.1,427.56,529.74,430,531.24,429.37Z"/><path class="cls-2" d="M482.63,169.51l-20.08,30.7c-9.26,14.15-18.32,28.38-27.3,42.7l26.35.34a3.67,3.67,0,0,0,2.36-.51,7.29,7.29,0,0,0,1.32-2.12,5.06,5.06,0,0,1,4-2.12,15.08,15.08,0,0,1,4.65.71,12.31,12.31,0,0,1-2.07-3.41,4.16,4.16,0,0,1,.41-3.82c1.21-1.58,3.55-1.62,5.53-1.44a103.21,103.21,0,0,1,25.64,5.56l7-10.74c.36-.57,1.09-1.45,1.09-2.16s-.91-1.9-1.17-2.64a13.78,13.78,0,0,1-.69-5.94,3.74,3.74,0,0,1,1.57-3.05,2.76,2.76,0,0,1,2.41,0,6.38,6.38,0,0,1,1.93,1.54c5.18,5.65,6.38,14.44,4.17,21.61-.82,2.64-2.11,5.15-2.55,7.88a26.8,26.8,0,0,0-.07,5.94l1.08,16.73c0,.64,3.91,2.8,4.53,3.26q2.37,1.74,4.69,3.53c12.43,9.58,21.72,25.43,23.75,40.95,1.69,13-1.62,26.78-9.83,37a42.48,42.48,0,0,1-14.25,11.41c-5.79,2.86-12.81,3.84-19.16,4-7.6.2-15,1-22.51-.81a30.57,30.57,0,0,1-13.68-7,27.34,27.34,0,0,1-4.78-6.14c-1.43-2.39-1.67-6.07-5.1-5.07-3,.87-6.16,3.63-9,5L452,352A101.34,101.34,0,0,1,442.2,356c-1.66.6-3.34,1.15-5,1.66-1.37.41-2.8.56-4.11,1.1-8.92,4-18.83,3.77-28.35,3.23q-11-.63-21.87-2.23c-3.63-.53-7.23-1.19-10.84-1.84-2.82-.5-6.08-1.61-8.95-.95a26.71,26.71,0,0,0-4.37,1.7,26,26,0,0,1-5.33,1.59,5.22,5.22,0,0,1-3.2,0c-1.39-.52-2.8-1-4.2-1.5l-8.4-3a6.73,6.73,0,0,1-2.67-1.44c-.86-.9-1.23-2.2-2-3.21a12.53,12.53,0,0,0-2.72-2.72,27.81,27.81,0,0,0-7.24-3.59,146.21,146.21,0,0,0-15.65-4.47,119.45,119.45,0,0,0-20.72-2.52c-3.48-.11-7-.08-10.44.12-1.57.08-3.67.66-5.2.4-.87-.15-.75-.48-.92-1.41l-.51-2.63a11.08,11.08,0,0,1-.2-6.23,24.66,24.66,0,0,0,.76-6.26,18.85,18.85,0,0,0-1.22-4.69l-1.69-4.79c-.48-1.36-1.4-3-1.46-4.47-.05-1.23.21-2.48.15-3.75-.07-1.59-.19-3.18-.21-4.77a66.71,66.71,0,0,1,.79-9.14c.84-6.92,1.41-14,.55-20.9-1-8.2-4-16-5.69-24a19,19,0,0,1-.86-4.75,40.51,40.51,0,0,0-.11-6.23,112.08,112.08,0,0,0-2.41-11.88c-2-8.64-3.09-17.43-4.22-26.22-1.08-8.38-1-16.8,2.42-24.68A44.57,44.57,0,0,1,269.63,154a44.09,44.09,0,0,1,5.38-3.58c8.29-4.66,17.81-6.5,27.08-8.6s18.75-4.68,26.28-10.49c-.52.4-.49,1.62-.58,2.2a21.28,21.28,0,0,1-.7,2.86c-.65,2.1-1.22,4.23-1.71,6.37a91.11,91.11,0,0,0-2,13,92.46,92.46,0,0,0,1,23c1.24,7.29,4.18,14.21,6.31,21.31a51.07,51.07,0,0,1,2.46,9.62c.68,5.61-.48,11.25-1.25,16.85a52.86,52.86,0,0,0-.56,8,42.62,42.62,0,0,0,1.21,7.47c.33,1.69.49,3.77,1.3,5.3,1,1.85,1.87,3,1.63,5.27a20.47,20.47,0,0,1-1.86,5.75,14.28,14.28,0,0,0-1.47,5.83c.09,3.14,2,5.88,3.91,8.4l2.23,3a5.45,5.45,0,0,0,2.41,2.16c1.38.46,2.85-.23,4.13-.9,2.26-1.17,4.62-2.43,6.06-4.53,2.36-3.43,1.66-8.12,3.22-12a13.8,13.8,0,0,1,6.88-6.94,18.12,18.12,0,0,1,7-2,13.21,13.21,0,0,0,7.18-3A22.19,22.19,0,0,0,381.2,240c1.06-2.38,2.64-5.54,2.86-8.14.2-2.38.11-4.45,2.49-5.88.86-.52,1.86-.8,2.66-1.4a5.39,5.39,0,0,0,1.91-3.2c.23-1.06.06-2.2.35-3.23.21-.78.66-1.51.92-2.28a19.11,19.11,0,0,1,2.9-6c1.81-2.28,4.82-3.86,7.64-3.14a7.9,7.9,0,0,1,7.44-10.41c2.32,0,4.58,1,6.9.85a27.45,27.45,0,0,0,5.22-1.35,16.91,16.91,0,0,1,9,.12c2.76.9,5.47,3,8,4.44,1.2.69,2.57,1.41,3.91,1a5.32,5.32,0,0,0,2.56-2.14l11.1-14.33a40.35,40.35,0,0,0,4.83-7.28c1.86-3.94,1-8,1.34-12.29l1.07-15.27c2.55.87,4.13,3.41,5.13,5.91.43,1.09,1.91,7,3.33,7,.73,0,2.38-3,2.83-3.61l3.07-4.12,11.94-16c2.67-3.58,5.57-7.33,9.74-8.92,5.19-2,11-.11,16.2,1.75l13.51,4.8c2.25.81,4.51,1.59,6.76,2.41,1.7.62,3.08,1.56,4.88,1.8a44.82,44.82,0,0,1,5.54,1.48,60,60,0,0,0,37.09-2c.63-.24,1.25-.5,1.86-.77a48.31,48.31,0,0,1,7.25-2.86,10.41,10.41,0,0,1,7.59.67c2.26,1.28,3.76,4.08,3,6.57l-28.47,3.51c-2.66.33-5.5.45-8,1.38s-5.36.52-8,0c-8.24-1.49-16.67-2.75-24.81-4.69-8.42-2-17.3-2.77-25.88-4a10.4,10.4,0,0,0-5.32.15,9.52,9.52,0,0,0-3.66,3.14c-3.07,3.8-5.6,8-8.26,12.08Z"/><path class="cls-2" d="M481.55,168.88c-15.94,24.38-31.9,48.73-47.38,73.4a1.26,1.26,0,0,0,1.08,1.88l22.19.29c2.44,0,6.23.85,7.95-1.43.95-1.26,1.15-2.53,2.85-3.07s3.67,0,5.39.46c.95.25,2.11-.92,1.41-1.83-1.63-2.14-3.9-6.3.43-6.83,2.86-.34,6.08.38,8.88.82a104.91,104.91,0,0,1,18.79,4.74,1.26,1.26,0,0,0,1.41-.57l5.35-8.2c1.15-1.78,3.5-4.1,2.68-6.39-.38-1.07-1-2-1.32-3.07a10.84,10.84,0,0,1-.19-5c1-4,4.92,1.41,5.77,2.87a22,22,0,0,1,2.31,15.26c-.58,2.86-1.89,5.47-2.69,8.27-.89,3.14-.65,6.32-.45,9.53l.65,10.1c.11,1.62.15,3.26.32,4.88a2.42,2.42,0,0,0,.85,1.81,33.37,33.37,0,0,0,4.11,2.74,75.27,75.27,0,0,1,6.76,5.19,63.9,63.9,0,0,1,18.54,27.22,52,52,0,0,1,.87,32.81,42.7,42.7,0,0,1-21.34,25.53c-5.34,2.68-11.42,3.64-17.34,3.91-6.29.3-12.73.77-19,.09a31.45,31.45,0,0,1-16.89-6.72,24,24,0,0,1-5.54-6.81c-.85-1.52-1.22-3.44-2.52-4.67-3.38-3.22-9,1.9-11.84,3.6a60.9,60.9,0,0,1-8.68,4,70.13,70.13,0,0,1-9,3.06c-2.94.72-5.65,2-8.56,2.74a47.21,47.21,0,0,1-9.22,1.45,133.09,133.09,0,0,1-18.94-.51c-6.74-.54-13.47-1.33-20.13-2.46-3.15-.53-6.29-1.07-9.4-1.74-2.71-.58-5.43-1-8.11-.08-2.9,1-5.52,2.4-8.57,3s-6.25-1.34-9-2.32l-4.52-1.61c-1.49-.53-3.27-.89-4.18-2.29a30.71,30.71,0,0,0-1.85-3.06,14.86,14.86,0,0,0-2.89-2.65c-4.84-3.46-11.28-5-16.93-6.52a114.39,114.39,0,0,0-19-3.5c-6.37-.65-13.13-1.11-19.51-.33-1,.12-2.74.73-3.72.36-.3-.12.44.91-.13-.13a3.19,3.19,0,0,1-.13-.75c-.16-.86-.31-1.73-.54-2.57-.84-3.1.15-6,.57-9s-.34-5.64-1.34-8.47c-.49-1.4-1-2.8-1.48-4.19a19.45,19.45,0,0,1-1.36-3.81,36.3,36.3,0,0,1,.08-4.42c-.07-1.7-.22-3.39-.21-5.09a88.66,88.66,0,0,1,.92-9.48,83.88,83.88,0,0,0,.43-19.9c-.75-6.15-2.56-12.08-4.17-18-.8-3-1.63-6-2.21-9s0-6-.41-9c-.89-6.58-2.84-13-4-19.55s-2.11-13.18-2.78-19.79c-.64-6.38-.48-12.9,1.5-19,3.63-11.3,12.58-20.51,23.31-25.32,11-5,23.33-5.91,34.74-9.71A50.56,50.56,0,0,0,329,132.45l-1.51-2c-1,1.24-.88,3-1.27,4.46-.6,2.3-1.34,4.56-1.89,6.88a94.26,94.26,0,0,0-2.17,13.35,85.2,85.2,0,0,0,1.92,28.47c1.13,4.44,2.72,8.76,4.16,13.11,1.54,4.64,3.38,9.46,3.73,14.37.67,9.37-3.22,18.52-1.39,27.87.39,2,.76,4.07,1.18,6.1s1.54,3.45,2.18,5.29c1.38,4-2.48,8.39-3,12.29-.57,4.28,1.93,7.8,4.35,11.06a23.44,23.44,0,0,0,3.53,4.39,4.92,4.92,0,0,0,5.14.49c3.32-1.32,7-3.51,8.61-6.82,1.73-3.56,1.17-7.71,2.77-11.3,1.67-3.75,5.54-6.15,9.36-7.23,2-.57,4.1-.5,6.08-1.1a15.2,15.2,0,0,0,5.25-2.83c3.42-2.8,5.35-6.69,7.11-10.65a24.45,24.45,0,0,0,2.07-6c.27-1.74,0-3.92,1.4-5.22a20.51,20.51,0,0,1,3-1.64,5.89,5.89,0,0,0,1.93-2c1.17-2,.74-4.32,1.6-6.43,1.62-4,3.78-10.61,9.47-9.43a1.26,1.26,0,0,0,1.54-1.54,6.76,6.76,0,0,1,4-8.4c3.32-1.24,6.7.84,10.1.32,1.59-.25,3.07-.89,4.62-1.29a16.34,16.34,0,0,1,5.35-.46c3.72.28,6.6,2.39,9.68,4.28,2.4,1.48,5.22,2.9,7.69.77a24.08,24.08,0,0,0,3-3.66l3.84-5c2.24-2.89,4.49-5.76,6.7-8.66,2.06-2.71,4.17-5.63,4.89-9,.81-3.8.35-7.82.62-11.67l.95-13.54-1.58,1.2c4,1.57,4.51,6.65,6,10.11.48,1.1,1.22,2.69,2.61,2.78s2.49-1.77,3.19-2.85c3.08-4.76,6.73-9.21,10.13-13.76q3-4,5.92-7.94a35.54,35.54,0,0,1,5.12-5.83c5.07-4.35,11.35-3.22,17.19-1.27,6,2,12,4.27,18,6.39,1.43.5,2.88,1,4.3,1.53a36.53,36.53,0,0,0,4,1.62c2.87.74,5.76,1.57,8.66,2.22a61,61,0,0,0,38-3.61c3.15-1.38,6.39-3.11,9.94-2.95,3.14.13,6.66,2.48,5.75,6l1.21-.91c-9.69,1.19-19.38,2.48-29.08,3.58a51.27,51.27,0,0,0-5.93.83c-2.34.56-4.17,1.21-6.63.95-4.53-.49-9.07-1.54-13.56-2.33-9.22-1.63-18.28-3.91-27.56-5.17-4.31-.59-8.62-1.18-12.92-1.74a10,10,0,0,0-5.36.4,11.75,11.75,0,0,0-4.31,3.83c-3,3.75-5.45,7.84-8.06,11.84q-4.51,6.93-9.06,13.85c-.89,1.35,1.28,2.61,2.16,1.26,4.87-7.44,9.54-15.07,14.65-22.36a31.31,31.31,0,0,1,3.93-4.95c1.85-1.74,3.94-1.67,6.31-1.33,4.44.63,8.89,1.17,13.33,1.79,8.83,1.24,17.46,3.44,26.23,5,4.31.76,8.62,1.62,13,2.26a16.19,16.19,0,0,0,5.29.05c2.26-.43,4.34-1.2,6.65-1.46,10.33-1.17,20.64-2.52,31-3.79a1.3,1.3,0,0,0,1.2-.92c1.28-5.06-3.17-8.9-7.88-9.2a18.07,18.07,0,0,0-8.2,1.83,93.76,93.76,0,0,1-9.41,3.71,59.1,59.1,0,0,1-19.11,2.48c-6.69-.22-13-1.94-19.45-3.6a31.78,31.78,0,0,1-3.74-1.51c-1.61-.63-3.25-1.18-4.88-1.75l-9.23-3.28c-5.8-2.06-12-5-18.23-4.92-5.7,0-9.95,3.29-13.39,7.55-4,4.94-7.64,10.17-11.43,15.25-2,2.71-4.21,5.36-6.07,8.19l-.77,1.21a9.25,9.25,0,0,0-1,1.33c0-.22.65.3.55-.07a3.11,3.11,0,0,0-.36-.59,9.17,9.17,0,0,1-.59-1.32c-1.66-4.27-2.58-9-7.36-10.87-.82-.32-1.53.48-1.59,1.21l-.82,11.8c-.27,3.74-.05,7.54-.43,11.26s-2.6,6.93-4.87,9.91c-2.5,3.29-5.06,6.54-7.59,9.8l-3.41,4.41c-1.28,1.65-2.37,3.63-4.74,2.59-3.1-1.36-5.62-3.75-8.82-5a17.14,17.14,0,0,0-9.15-.55c-1.55.29-3,.92-4.53,1.29-2.12.51-4,0-6.11-.38-6.93-1.12-12.95,4.74-10.87,11.78l1.54-1.54a9.1,9.1,0,0,0-8.85,3.46,17.27,17.27,0,0,0-2.62,4.83,21.57,21.57,0,0,0-1.77,5.95c-.2,2.55-1,3.62-3.3,4.72a6.16,6.16,0,0,0-3.22,3.17,15,15,0,0,0-.69,4.21,21,21,0,0,1-2.05,6.1c-1.61,3.57-3.36,7.15-6.5,9.64A12.33,12.33,0,0,1,369,250a40.32,40.32,0,0,0-6.14,1.18,17.61,17.61,0,0,0-8.67,6.21c-2.23,3.19-2.21,7-3,10.62-.92,4.17-3.91,6.3-7.62,8-1.44.66-2.67.76-3.78-.48-.73-.8-1.33-1.74-2-2.61a32.82,32.82,0,0,1-3.63-5.49c-2.15-4.63.91-8.38,2.09-12.75a8.64,8.64,0,0,0,.14-4.78c-.53-1.75-1.71-3.18-2.14-5a48.15,48.15,0,0,1-1.71-13.06c.23-4.72,1.25-9.35,1.72-14.05a35.8,35.8,0,0,0-.9-13c-1.18-4.46-2.74-8.82-4.21-13.18a86.34,86.34,0,0,1-3.87-14.56,92.09,92.09,0,0,1,.72-31.46c.52-2.59,1.15-5.16,1.89-7.69.34-1.18.74-2.34,1-3.55.11-.55,0-1.81.36-2.23.83-1-.29-2.88-1.51-2-10,7.58-22.6,9.45-34.47,12.3a76.91,76.91,0,0,0-17.53,6,45.12,45.12,0,0,0-13.95,11.29,43.2,43.2,0,0,0-8.29,15.25,50,50,0,0,0-1.27,19.1c.7,6.61,1.66,13.24,2.78,19.8q.9,5.19,2.09,10.32a75.9,75.9,0,0,1,2,10.53c.27,3-.19,6,.51,8.92.75,3.12,1.5,6.24,2.35,9.34,1.79,6.53,3.69,13,4.07,19.84s-.48,13.65-1.29,20.45a64.53,64.53,0,0,0-.18,10.31c.05,1.45-.24,2.9-.11,4.34a13.78,13.78,0,0,0,1.2,3.85,50.44,50.44,0,0,1,3,9c.59,3.18-.75,6.28-1,9.43a12,12,0,0,0,.46,4,35.74,35.74,0,0,0,.8,3.89c.86,2.1,4,1.34,5.67,1.1,6.71-.94,13.93-.39,20.64.33a112.73,112.73,0,0,1,20.16,4.06c5.64,1.67,13.81,3.3,16.91,8.92a9.37,9.37,0,0,0,2,2.88,10.82,10.82,0,0,0,3.48,1.65q4.78,1.71,9.56,3.4a13,13,0,0,0,4.06,1.16,16,16,0,0,0,4.32-.77c3-.82,5.87-2.88,9-3s6.48,1,9.56,1.59c3.39.61,6.77,1.18,10.17,1.65q10.2,1.41,20.48,2a85.88,85.88,0,0,0,18.76-.51,42.37,42.37,0,0,0,9.18-2.6c3-1.2,6.22-1.76,9.25-2.83s6.17-2.36,9.17-3.75a71.75,71.75,0,0,0,7.32-4.2,11,11,0,0,1,3.8-1.79c1.1-.17,1.51.46,2,1.38a38.26,38.26,0,0,0,3.63,6.41,28.69,28.69,0,0,0,13.73,9.52C488,367,494.54,367.2,501,367c6.21-.2,12.5-.23,18.6-1.6,23.46-5.27,35.9-30.38,32.79-52.93a65.54,65.54,0,0,0-25.32-42.22c-1.84-1.4-3.68-2.75-5.63-4-.61-.38-1.75-.9-2-1.53a9.9,9.9,0,0,1-.11-2.2l-.2-3.14q-.35-5.22-.67-10.45a23.39,23.39,0,0,1,1.24-10.23c1.94-5.25,3-10.32,1.94-15.91a22.54,22.54,0,0,0-2.63-7.13c-1.15-2-2.78-4.39-5-5.26-6-2.39-6.06,6.47-5,9.92.25.83,1.35,2.23,1.25,3-.06.46-.6,1-.86,1.4-.5.75-1,1.51-1.48,2.26l-5.53,8.48,1.41-.57a105.7,105.7,0,0,0-24.33-5.46c-2.73-.28-6.26-.7-8.15,1.78-2.16,2.83-.26,6.23,1.56,8.62l1.41-1.84c-2.78-.72-6-1.36-8.51.38-1.1.75-1.43,1.7-2.16,2.74-1,1.48-3.87.86-5.49.83l-22.88-.29,1.08,1.88c15.48-24.67,31.43-49,47.38-73.4C484.59,168.79,482.43,167.54,481.55,168.88Z"/></g><g id="Layer_5" data-name="Layer 5"><path class="cls-3" d="M402.57,426.53l-2.92,1.1c-11.59,4.28-23.59,8.63-35.94,7.95-10.8-.59-21-5-31.4-7.84-9.48-2.59-25-5.18-33.05,2.45-5.14,4.86-4.39,13.49-13.66,7.75-25.49-15.78-41.78-56.72-25.86-84.06,4-6.85,9.82-12.84,17.14-15.92,9.69-4.09,20.93.07,30.78,1.53,10.87,1.61,19.19,8.23,29,12.68,11.27,5.12,23.89,6.15,36.23,7.11,15.39,1.19,30.88,2.38,46.24.85A102,102,0,0,0,445,354.32c4.93-1.86,9.06-6.24,14.29-7.33,6.91-1.46,7.76,5,12.79,9a50.14,50.14,0,0,0,79.42-24.18c1.15-3.73,1.9-7.65,3.91-11,3.86-6.41,11.63-9.43,19.06-10.33,14.06-1.68,29,3.15,38.57,13.59s13,26.46,7.46,39.49c-5.1,12-16.43,20-27.22,27.38-15.35,10.46-29,22-46.14,29.55a258,258,0,0,1-54.21,17A22.57,22.57,0,0,1,471.81,446a74.45,74.45,0,0,0-27.18-42.62,19,19,0,0,1-22.82-1.87c2.23,6-.66,12.9-5.34,17.24C412.55,422.4,407.6,424.61,402.57,426.53Z"/><path class="cls-3" d="M402.24,425.33c-7.49,2.85-15.07,5.7-22.9,7.48a54.76,54.76,0,0,1-24.1.32c-13.25-2.87-25.7-9-39.48-9.25-5.49-.08-11.4.81-15.91,4.19a17,17,0,0,0-4.44,5.16c-.91,1.55-1.69,3.74-3.19,4.84-2,1.43-4.69-.39-6.37-1.45a53.23,53.23,0,0,1-6.68-5,68.12,68.12,0,0,1-11.3-12.73c-12.71-18.47-18.9-45.17-6.47-65.36,3.64-5.91,8.72-11.1,15.07-14.05,7.08-3.28,15-1.9,22.32-.41,3.64.73,7.34,1.26,10.95,2.06a46.83,46.83,0,0,1,10.33,3.77c6.35,3.11,12.31,7,18.91,9.6,7.08,2.78,14.62,4.1,22.15,5,8.14.93,16.35,1.47,24.52,2,16.43,1.05,33.16,1.22,49.25-2.72a73.44,73.44,0,0,0,11.25-3.54c3.1-1.33,5.77-3.41,8.68-5.07,2.46-1.39,5.94-3,8.7-1.52,2,1.11,3.28,3.39,4.67,5.14,3.88,4.87,9.94,8.16,15.61,10.51a53.13,53.13,0,0,0,20.25,4.07,51,51,0,0,0,34.05-13.51,52.68,52.68,0,0,0,11.31-14.67,49.92,49.92,0,0,0,3.38-8.31c1.1-3.6,1.83-7.4,3.84-10.63,3.52-5.65,10.27-8.3,16.58-9.31a45.6,45.6,0,0,1,20.3,1.51c13,4,23.53,13.83,27.09,27.1a35.48,35.48,0,0,1-.19,19.65c-2,6.51-6.17,12.09-11,16.78a122.63,122.63,0,0,1-16.27,12.59c-6.32,4.32-12.47,8.87-18.72,13.29a196.36,196.36,0,0,1-18.65,12,166.64,166.64,0,0,1-22.11,9.83q-11.26,4.22-22.89,7.38-5.88,1.61-11.84,2.92c-1.87.42-3.76.77-5.64,1.18-1.56.35-2.2,1.76-3.32,2.85a21.43,21.43,0,0,1-17.81,5.84l.87.88a76.22,76.22,0,0,0-27.75-43.37,1.19,1.19,0,0,0-1.26,0,17.77,17.77,0,0,1-21.3-1.67c-.86-.78-2.52,0-2.09,1.22,1.79,5.16-.16,10.68-3.68,14.64-3.86,4.34-9.37,6.77-14.69,8.82-1.48.57-.84,3,.67,2.41,6-2.33,12.35-5.13,16.5-10.31C423,412.9,425,406.85,423,401.2l-2.09,1.22a20.29,20.29,0,0,0,24.33,2.06H444a73.64,73.64,0,0,1,26.6,41.87,1.2,1.2,0,0,0,.87.87,24.06,24.06,0,0,0,18-4.55,22.36,22.36,0,0,0,3.36-3.09c.57-.65.68-.88,1.45-1.11,1.17-.35,2.45-.5,3.65-.76q6-1.27,11.86-2.84,12.12-3.21,23.89-7.59a175.91,175.91,0,0,0,22.22-9.69c13.8-7.46,26.05-17.4,39-26.22,11.12-7.61,23-16.24,27.64-29.52,4.32-12.48,1.08-26.89-7.15-37-8.57-10.55-22.43-16.06-35.85-15.92-6.48.07-13.32,1.34-18.83,4.9a20,20,0,0,0-6.33,6.37c-2,3.29-2.77,7.08-3.86,10.71a50.19,50.19,0,0,1-24.54,29.48A48.6,48.6,0,0,1,485,362.07a50.53,50.53,0,0,1-9.47-5.09,28.65,28.65,0,0,1-6.8-6.61c-1.35-1.76-2.78-3.53-4.9-4.36-2.63-1-5.56-.25-8,.84-3.18,1.39-5.89,3.59-8.93,5.23-3.57,1.93-7.73,3-11.64,4a119.94,119.94,0,0,1-25.73,3.43,260.23,260.23,0,0,1-26.34-.72c-8.37-.57-16.79-1.07-25.11-2.2a74.21,74.21,0,0,1-23.26-6.68c-6.5-3.24-12.62-7.26-19.48-9.74a70.52,70.52,0,0,0-10.92-2.51c-3.84-.73-7.65-1.63-11.53-2.18-7.41-1-14.41-.41-20.87,3.61-10.6,6.6-17.22,18.56-19.12,30.7-1.82,11.69.15,23.79,4.51,34.72a75.34,75.34,0,0,0,20,28.89,58.69,58.69,0,0,0,6.81,5.14c2,1.29,4.43,2.75,6.93,2.52,4.23-.37,5.51-5.6,7.65-8.47,3.64-4.87,10.24-6.15,16-6.21a64.89,64.89,0,0,1,17.87,2.74c7.87,2.2,15.53,5.21,23.57,6.75a57.4,57.4,0,0,0,23.81-.65c7.83-1.78,15.41-4.63,22.91-7.48C404.4,427.17,403.75,424.75,402.24,425.33Z"/></g><g id="Layer_4" data-name="Layer 4"><path class="cls-4" d="M457,243.17c-.74-.08-1.41-.16-1.94-.17l-15.74-.38c-6.46-.15,2.29-9.27,3.72-11.45l13.65-20.78,17.14-26.12c8.1-12.33,16.19-24.6,24.12-37.05,1.32-2.06,2.72-4.21,4.86-5.39,2.92-1.61,6.5-1.07,9.78-.48,15.17,2.73,30.12,6.88,45.51,8.32,7.17.67,13.27-1,20.35-2.1l24.34-3.8c-.1,5.26-3.57,9.77-6.88,13.86l-27.72,34.2-13.61,16.79c-3.56,4.39-8.44,7.8-11.72,12.37-3.45,4.82-7,9.5-10.9,14.11-1.57,1.88-3.21,3.81-5.44,4.83s-5.22.8-6.7-1.15c-1.88-2.45-.51-5.91.24-8.9a20.28,20.28,0,0,0-2.38-15.47c-1.49-2.41-4.46-4.69-6.92-3.28-1.94,1.11-2.17,3.87-1.53,6s1.91,4.1,2.2,6.32c.55,4.37-3.08,8.43-7.29,9.74s-8.77.49-13-.67-8.49-2.65-12.9-2.68c-2.07,0-4.31.4-5.69,1.93s-1.23,4.46.68,5.25c-3.11-1.29-7,2.26-8.52,3.86-1.17,1.24-.12,1.61-2.23,2.45C460.86,244,458.54,243.36,457,243.17Z"/><path class="cls-4" d="M457,241.92c-4.12-.47-8.37-.32-12.51-.42l-3-.07a15.55,15.55,0,0,1-2.73-.1c-.12,0-.6-.21-.49-.12-.11-.09-.11-.19-.09-.42.18-1.76,1.74-3.58,2.76-4.95s2.17-2.64,3.14-4c5-7.21,9.65-14.69,14.46-22L472.82,188c4.72-7.19,9.46-14.38,14.16-21.59q3.5-5.34,7-10.71c2.2-3.41,4.21-7.09,6.7-10.3a8,8,0,0,1,4.16-3.06,13.59,13.59,0,0,1,5.75-.07c4,.61,8.06,1.49,12.06,2.33,8.26,1.73,16.49,3.6,24.83,4.94a105,105,0,0,0,12.5,1.49,55.8,55.8,0,0,0,11.74-1c8.34-1.44,16.7-2.73,25.06-4l6.33-1-1.58-1.21c-.14,3.86-2.14,7.22-4.38,10.25-2.5,3.37-5.25,6.57-7.9,9.83l-16.66,20.56L556,204.87a90,90,0,0,1-8,8.7,61.75,61.75,0,0,0-7.49,8.5c-2.46,3.38-5,6.71-7.66,10-2.13,2.61-4.69,6.64-8.31,7.18a3.88,3.88,0,0,1-3.9-1.37c-1-1.5-.49-3.52-.08-5.13.92-3.62,1.61-7,1.08-10.77a19.1,19.1,0,0,0-4-9.64c-2-2.32-5.65-4.09-8.3-1.69-2.39,2.16-1.86,5.78-.77,8.44.67,1.64,1.57,3.3,1.63,5.11a7,7,0,0,1-1.54,4.41c-5.23,6.89-15,3.33-21.8,1.47-3.66-1-7.78-2-11.57-1.15-2.89.66-5.33,3-4.89,6.11a4,4,0,0,0,2.15,3.11l1-2.28c-3.3-1.21-6.68,1.24-8.95,3.4a7.84,7.84,0,0,0-1.34,1.48c-.19.3-.39,1-.49,1.09-1.22,1.29-4.29.31-5.76.12s-1.58,2.3,0,2.5c1.79.23,3.68.74,5.47.23a4.84,4.84,0,0,0,2.13-1.16,5.37,5.37,0,0,0,.68-1.3,9.85,9.85,0,0,1,3-2.78c1.35-.93,2.95-1.78,4.6-1.17,1.32.48,2.23-1.66,1-2.29a2.11,2.11,0,0,1-.58-3.06c.89-1.4,2.9-1.73,4.41-1.78,4.18-.14,8.24,1.26,12.21,2.38,6.73,1.89,15.24,3.17,20.35-2.86a9.46,9.46,0,0,0,2.15-8.73c-.7-2.54-3.72-6.64-1.55-9.2,1.15-1.38,3-.56,4.11.4a11.72,11.72,0,0,1,3,4.58,19.06,19.06,0,0,1,1.16,10.66c-.59,3.21-2.37,6.71-1,10,1.23,2.93,4.53,3.92,7.45,3.26,3.49-.79,5.88-3.88,8-6.49,2.56-3.09,5-6.26,7.44-9.48a71.26,71.26,0,0,1,7.39-9,94.51,94.51,0,0,0,7.8-8.09l16.42-20.26L589,168.12c2.72-3.37,5.46-6.72,8.18-10.1a35,35,0,0,0,5.81-9.15,15.36,15.36,0,0,0,1-5.1,1.27,1.27,0,0,0-1.59-1.2c-8.88,1.38-17.8,2.65-26.66,4.18a103.66,103.66,0,0,1-12.15,1.76,65.56,65.56,0,0,1-13.11-1c-8.67-1.27-17.22-3.2-25.79-5-4.27-.91-8.54-1.81-12.85-2.53-3.61-.6-7.57-.9-10.67,1.41s-4.86,6-6.86,9.14q-3.58,5.59-7.2,11.14-7.38,11.33-14.81,22.6l-29.84,45.45c-1.08,1.63-2.35,3.1-3.53,4.67a15.45,15.45,0,0,0-3.12,5.5,3,3,0,0,0,2.43,3.89,37.38,37.38,0,0,0,5.7.22l6.89.16c2,0,4.09,0,6.12.27C458.55,244.61,458.53,242.1,457,241.92Z"/></g><g id="Layer_3" data-name="Layer 3"><path class="cls-5" d="M412.09,11.21A58.45,58.45,0,0,1,452.93,35a60.84,60.84,0,0,1,6.52,11.2c6.12,13.76,6.59,28.75,6.23,43.53l-1.56,65.6c-.18,7.52.22,16.25-3.56,22.91a100.53,100.53,0,0,1-14.14,19.17c-1.19,1.26-2.54,2.56-4.25,2.81-3,.45-5.38-2.41-8.08-3.86s-6.14-1.47-9.31-1.4l-11.2.25c-2.67.06-5.59.22-7.58,2s-2.49,5-4.15,7.27c-2.61,3.57-8.09,4.71-9.67,8.85-.76,2-.39,4.23-.71,6.34s-1.88,4.41-4,4.17a3.66,3.66,0,0,1-2.87-2.92,10.74,10.74,0,0,1,.19-4.33c.84-4.63,1.64-9.28,2.53-13.91.72-3.77,2.8-6.4,4.75-9.69,3.19-5.4,6-11.16,7-17.4,1.16-7.08.23-15.1,4.77-20.66,3.58-4.37,9.54-5.85,15.11-6.76s11.49-1.62,15.95-5.07c3.56-2.76,5.71-6.92,7.58-11A167.64,167.64,0,0,0,457.09,76.4c.56-6.65.61-13.79-3-19.43-4.49-7.1-13.88-9.93-22.17-8.6s-15.61,6.14-22,11.55C403,65.78,396.24,74.48,387.73,78a4.75,4.75,0,0,1-4,0c-2-1.1-2.53-3.87-4.43-5.16s-4.59-.62-6.84.13c-3.28,1.1-6.72,2.3-9,4.91A12.7,12.7,0,0,0,360.61,85a17.94,17.94,0,0,0,7.41,16.2c1.36,1,2.93,1.8,3.59,3.32,1.07,2.48-.71,4.49-1.28,6.79a45.46,45.46,0,0,0-.8,7.21,93.49,93.49,0,0,0,.25,16.22c1.06,10.92,3.61,21.61,6.18,32.25l6.2,25.74c1,4,1.87,8,3.16,11.81,1.2,3.58.91,8.08.73,11.83A64.45,64.45,0,0,1,380,240.79a19.48,19.48,0,0,1-3.83,5.82c-3.15,3-7.69,4-11.83,5.4-2.38.83-5.56,2.09-7.38,3.92-2,2-2.43,6-3.25,8.57a28.9,28.9,0,0,1-3.8,8.58c-1.87,2.52-4.81,4.48-7.95,4.33-3.57-.17-6.58-3.06-7.86-6.39s-1.15-7-.72-10.59,1.14-7.1.92-10.67a62.52,62.52,0,0,0-1.69-9.16,61.8,61.8,0,0,1-1.21-16.39c.32-5.29,1.71-10.85,1.36-16.15-.17-2.65-1.9-5.52-2.76-8q-1.53-4.39-2.75-8.9a134.41,134.41,0,0,1-3.89-20.57,77.16,77.16,0,0,1-.69-12.43c.21-4.17,1.37-8.18,2.21-12.25a119.91,119.91,0,0,1,3.4-12.93c1.24-3.83,3.26-7.31,4.54-11.14,2.64-7.89,3.6-16.2,4.89-24.38,1.52-9.61,3.51-19.16,6-28.58,3-11.52,6.21-23.26,13.22-33.07a60.37,60.37,0,0,1,25.57-20.48q2.44-1,5-1.83A59.62,59.62,0,0,1,412.09,11.21Z"/><path class="cls-5" d="M412.09,12.46a58.39,58.39,0,0,1,44.6,30.88c9.45,18,7.92,38.88,7.45,58.53l-.77,32.27c-.23,9.93-.2,19.92-.7,29.85-.23,4.43-.79,9-2.89,13a84,84,0,0,1-7.95,12.09q-2.24,2.89-4.68,5.63c-1.31,1.45-2.9,3.72-4.93,4.17s-3.73-1.09-5.2-2.15a14.48,14.48,0,0,0-5.77-2.72,31.57,31.57,0,0,0-6.73-.35l-7.63.17c-4,.09-9-.4-12,2.71a16,16,0,0,0-2.78,4.9,10.29,10.29,0,0,1-3.31,4.27c-2.71,2-6.15,3.49-7.59,6.78-.91,2.06-.64,4.27-.87,6.45-.15,1.44-1.39,4.63-3.38,3.34-2.14-1.4-1-5-.64-6.95.46-2.58.91-5.16,1.38-7.73a38.06,38.06,0,0,1,1.6-7.18,36.44,36.44,0,0,1,3.18-5.69,64.84,64.84,0,0,0,6.25-12.7A52.25,52.25,0,0,0,401,168.87c.33-4.09.7-8.45,3-12,4.74-7.48,15.24-7,22.86-8.87A21.23,21.23,0,0,0,438,141.9c3-3.3,4.81-7.42,6.58-11.43a169.31,169.31,0,0,0,9.49-27.88,156.64,156.64,0,0,0,4.47-28.87c.46-8.44-1-17.21-8.18-22.52C444,46.56,435.51,45.86,428.14,48c-8.56,2.42-16,8-22.41,14.07-3.09,2.93-6,6-9.26,8.79a44.12,44.12,0,0,1-5.08,3.86c-1.6,1-3.73,2.52-5.69,2.55-2.19,0-2.95-2.16-4-3.66a6,6,0,0,0-4.47-2.67,15.06,15.06,0,0,0-6.08,1.23,26.69,26.69,0,0,0-5.8,2.59c-7.3,4.66-7.4,14.9-3.31,21.75a18.81,18.81,0,0,0,3.72,4.51c1.39,1.22,3.54,2.09,4.53,3.67,1.2,1.92-.47,4.09-1,5.94a29.84,29.84,0,0,0-.86,6.59A122.84,122.84,0,0,0,370.46,148c1.92,10.29,4.57,20.44,7,30.62q1.86,7.7,3.71,15.41c.62,2.56,1.23,5.12,1.95,7.66a36.34,36.34,0,0,1,1.71,6.87,60,60,0,0,1-.7,14.23,64.25,64.25,0,0,1-3.84,14.08c-1.7,4.24-3.66,8.56-7.86,10.82-3.75,2-8.05,2.71-11.92,4.45a13.35,13.35,0,0,0-4.82,3.25,12.65,12.65,0,0,0-2.25,5c-1.08,4-2,8.25-4.41,11.69s-7.11,5.53-10.86,2.57-4.13-7.79-3.81-12.12c.38-5.06,1.62-9.95.89-15s-2.23-9.91-2.6-15a74.83,74.83,0,0,1,.74-15.32,56.79,56.79,0,0,0,.62-7.37,16.14,16.14,0,0,0-1.38-6.45A117,117,0,0,1,325,173.79a82.3,82.3,0,0,1-1.07-15.9c.31-5.08,1.76-10.24,2.93-15.19a81.51,81.51,0,0,1,4.65-14.46,70.5,70.5,0,0,0,4.6-13.77c2.21-10.1,3.24-20.42,5.33-30.55a257.39,257.39,0,0,1,7.41-28.65c2.91-8.79,7-17.06,13.24-24a57.55,57.55,0,0,1,50-18.85c1.59.18,1.58-2.32,0-2.5a60.82,60.82,0,0,0-51.37,19.1,66.87,66.87,0,0,0-13.65,23.59,235.09,235.09,0,0,0-7.76,29.08q-1.68,7.89-2.92,15.87c-.78,5-1.45,10-2.47,15a70.63,70.63,0,0,1-4.7,14.62,82.08,82.08,0,0,0-4.75,14.59,114.28,114.28,0,0,0-3,14.86c-.54,5.29.16,10.7.81,15.95A139.08,139.08,0,0,0,325.11,188a89.76,89.76,0,0,0,4.59,14.7,17.22,17.22,0,0,1,1.83,6.8,55.38,55.38,0,0,1-.62,7.61,73.87,73.87,0,0,0-.72,15.58,63,63,0,0,0,1.07,7.73c.48,2.41,1.15,4.79,1.53,7.23.82,5.24-.67,10.36-1,15.57-.23,4.36.5,8.95,3.58,12.26a9.22,9.22,0,0,0,10.68,2.3c4.1-1.86,6.33-5.91,7.79-10,.67-1.87,1.23-3.76,1.71-5.68.44-1.77.85-3.82,2.1-5.21a14.08,14.08,0,0,1,5.51-3.2c2-.77,4.08-1.35,6.11-2,4.13-1.41,7.69-3.41,10.07-7.18a51.21,51.21,0,0,0,5.53-13.43,67.4,67.4,0,0,0,2.39-14.73,63.18,63.18,0,0,0,.11-6.88,27.07,27.07,0,0,0-1.35-6.73c-1.55-5-2.65-10.16-3.87-15.25-2.54-10.53-5.19-21-7.55-31.6-2.32-10.38-4.18-21-4.1-31.63,0-2.6.21-5.19.38-7.78a20.42,20.42,0,0,1,1.31-6.79c.77-1.86,1.36-3.72.52-5.68s-2.54-2.8-4.1-3.91A16.74,16.74,0,0,1,362.12,90c-.91-4.22-.18-9.27,3.23-12.21a18.07,18.07,0,0,1,5.84-3c1.94-.69,4.39-1.81,6.47-1.25,1.88.5,2.58,2.66,3.68,4.06a5.36,5.36,0,0,0,4.77,2.15,14.11,14.11,0,0,0,5.67-2.33,43.6,43.6,0,0,0,5.16-3.69c3.41-2.8,6.48-6,9.66-9,6.47-6.22,14-12.16,22.85-14.47,7.54-2,16.52-.65,22,5.31,6.44,7,4.84,18.12,3.81,26.76a166,166,0,0,1-6.43,29.82q-2.24,7.14-5.1,14.05c-1.8,4.37-3.63,9-6.5,12.8-5.82,7.71-15.79,6.85-24.2,9.21-3.92,1.1-7.75,3-10.32,6.22s-3.46,7.47-3.91,11.57c-.49,4.45-.57,8.9-1.8,13.23a56.67,56.67,0,0,1-6.12,13.39,65.47,65.47,0,0,0-3.39,5.77,27.13,27.13,0,0,0-1.9,6.85c-.49,2.66-1,5.32-1.44,8-.42,2.34-1.17,4.88-.87,7.27.48,3.88,4.82,6.38,7.76,3.08a8.47,8.47,0,0,0,1.83-5.45c.1-2.2,0-4.34,1.61-6.07,2.4-2.64,6-3.74,8.26-6.62a29.85,29.85,0,0,0,2.6-5.1,6.2,6.2,0,0,1,4.73-3.56,45.27,45.27,0,0,1,7.08-.35l7.87-.17a21.23,21.23,0,0,1,7.1.65c2.05.68,3.62,2.2,5.43,3.32a7,7,0,0,0,5.35,1.17c1.94-.48,3.42-2,4.74-3.41a101.74,101.74,0,0,0,9.18-11.4c2.64-3.8,5.4-7.81,6.79-12.27a48.81,48.81,0,0,0,1.67-13.34q.36-15.63.71-31.26l.78-32.53c.24-10.18.63-20.39-.63-30.51-1.21-9.73-4-19.23-9.05-27.66a61.6,61.6,0,0,0-18.87-19.65A60.85,60.85,0,0,0,412.09,10C410.49,9.77,410.51,12.27,412.09,12.46Z"/></g><g id="Layer_8" data-name="Layer 8"><g class="cls-6"><path class="cls-7" d="M268.82,269.64,265.18,255c-1.19-4.76-2.6-9.52-3.44-14.35a38.93,38.93,0,0,1-.34-7.4,17.42,17.42,0,0,0-1.32-6.72,50.48,50.48,0,0,1-2.74-13.94,107.9,107.9,0,0,0-1.86-14.11c-1-4.65-1.94-9.37-1.65-14.16.49-8.36,4.38-16.48,9.68-22.86a45.77,45.77,0,0,1,20-13.57c7.67-2.79,15.71-4.26,23.67-5.94,7.53-1.59,15.62-3.73,21-9.58s6.86-14.24,7.88-22a273.15,273.15,0,0,1,13.49-57.17,132.68,132.68,0,0,1,5.34-13.49c1.71-3.49,4.35-6.37,7-9.17A63.18,63.18,0,0,1,382,16.48a57.21,57.21,0,0,1,46.2-.11A59.55,59.55,0,0,1,459.6,48.82c6.65,17.06,5.93,35.87,5.39,53.84q-.93,30.48-3.18,60.89-.56,7.47-1.19,14.94c-.14,1.6,2.36,1.6,2.5,0q2.64-31.16,3.89-62.4c.4-9.84.81-19.7.78-29.55a130.25,130.25,0,0,0-2.49-27.37,65.6,65.6,0,0,0-9.9-23.56,62.74,62.74,0,0,0-16.25-16,60.21,60.21,0,0,0-45-9.53,62.87,62.87,0,0,0-22.8,9.39,65.8,65.8,0,0,0-9.57,7.73A51,51,0,0,0,354,36.28c-2.41,3.83-3.87,8.38-5.46,12.59q-2.64,7-4.86,14.12a257.56,257.56,0,0,0-7.35,29.48c-.93,4.94-1.7,9.91-2.35,14.9a99.71,99.71,0,0,1-2.05,12.27A22.29,22.29,0,0,1,316.3,137c-7.75,2.8-16.1,3.73-24.07,5.74s-16,4.75-22.68,9.67a46.78,46.78,0,0,0-15.2,19.46,38.85,38.85,0,0,0-3,12.13,51.17,51.17,0,0,0,1.51,14.26,113.09,113.09,0,0,1,2,14.42,52.79,52.79,0,0,0,2.57,13.93,35,35,0,0,1,1.2,3.44,14.65,14.65,0,0,1,.27,4,35.15,35.15,0,0,0,.41,7.1c.82,4.91,2.27,9.75,3.48,14.58l3.64,14.6a1.25,1.25,0,0,0,2.41-.66Z"/></g><g class="cls-6"><path class="cls-7" d="M294.3,438.67c-15.75-2.6-26.33-17.07-32.72-30.61a73.64,73.64,0,0,1-7.12-34.56c.13-3.81.46-7.47,2.07-11,3.51-7.67,9.76-13.63,14.63-20.4.94-1.31-1.23-2.56-2.16-1.26-4.55,6.33-10.22,11.91-13.88,18.87a26.78,26.78,0,0,0-3,10.82,76.23,76.23,0,0,0,.09,12.46,79.57,79.57,0,0,0,19.17,44.78c5.8,6.58,13.48,11.83,22.25,13.28,1.58.26,2.25-2.14.67-2.41Z"/></g><g class="cls-6"><path class="cls-7" d="M355.71,91.11,363,79.61c1.67-2.65,3.71-7.06,7.2-7.62,1.84-.3,3.57.72,5.11,1.59a22,22,0,0,0,4.9,2.2A21.05,21.05,0,0,0,391,75.65c15.48-4,22.79-21.23,38-25.53a22.78,22.78,0,0,1,21.85,5.76,1.25,1.25,0,0,0,1.77-1.77,25.42,25.42,0,0,0-19.65-7.21c-7.92.63-14.53,5.27-20.29,10.41-6.09,5.44-11.81,12.06-19.63,15a20.08,20.08,0,0,1-11.71,1.15c-3.65-.87-6.64-4-10.49-4.07-4.15-.07-6.82,3.68-8.8,6.82q-4.31,6.78-8.58,13.59c-.86,1.36,1.3,2.62,2.16,1.26Z"/></g><g class="cls-6"><path class="cls-7" d="M373,71.89a9.7,9.7,0,0,1-8,2.56,1.26,1.26,0,0,0-1.25,1.25A1.28,1.28,0,0,0,364.94,77a12.13,12.13,0,0,0,9.78-3.29A1.25,1.25,0,1,0,373,71.89Z"/></g><g class="cls-6"><path class="cls-7" d="M392,73.7a8.28,8.28,0,0,1-5.32,4.45c-1,.26-2.42.49-3.33-.18s-1.1-2.12-1.29-3.17a1.25,1.25,0,0,0-1.53-.87,1.29,1.29,0,0,0-.88,1.54c.29,1.59.72,3.3,2.05,4.36a6.12,6.12,0,0,0,5.12.85A10.64,10.64,0,0,0,394.2,75a1.28,1.28,0,0,0-.45-1.71,1.27,1.27,0,0,0-1.71.45Z"/></g><g class="cls-6"><path class="cls-7" d="M375.66,101.57c-4.63,1.42-9.15-1.38-11.4-5.38-2.63-4.67-2.43-10.23-1.79-15.38.19-1.59-2.31-1.58-2.5,0-.74,5.93-.72,12.37,2.68,17.54,2.93,4.45,8.37,7.26,13.68,5.64,1.53-.47.88-2.89-.67-2.42Z"/></g><g class="cls-6"><path class="cls-7" d="M456.47,60.35a175.52,175.52,0,0,1-9.88,57.74q-2.44,7-5.47,13.7c-1.71,3.8-3.38,8.13-6.38,11.13-3.59,3.59-8.33,2.68-12.94,3a25,25,0,0,0-23.4,28.22c.2,1.57,2.7,1.59,2.5,0a22.79,22.79,0,0,1,10.23-22.23,23.31,23.31,0,0,1,12.45-3.54c4.5,0,8.84.05,12.4-3.13,3.09-2.77,4.83-6.79,6.54-10.48q3-6.57,5.55-13.38a176.15,176.15,0,0,0,7.79-28.16A178.07,178.07,0,0,0,459,60.35a1.25,1.25,0,0,0-2.5,0Z"/></g><g class="cls-6"><path class="cls-7" d="M367.69,103a243.37,243.37,0,0,0,2.18,40.65c1.88,13.65,5.24,27,8.51,40.34L384,206.89c.38,1.56,2.79.9,2.41-.66-3.28-13.43-6.68-26.84-9.8-40.31a246.17,246.17,0,0,1-6-40q-.74-11.43-.38-22.88c.05-1.61-2.45-1.6-2.5,0Z"/></g><g class="cls-6"><path class="cls-7" d="M371.2,103.17,368.45,115c-.36,1.57,2.05,2.23,2.41.67l2.75-11.87c.37-1.57-2-2.24-2.41-.67Z"/></g><g class="cls-6"><path class="cls-7" d="M403.57,156.79C406,169.66,397,181,391.33,191.62a46.7,46.7,0,0,0-5.74,17.21c-.35,3.41-.34,6.83-.59,10.24a56.23,56.23,0,0,1-1.45,9.21,58.08,58.08,0,0,1-8.43,18.93c-.9,1.34,1.26,2.59,2.16,1.26a60.45,60.45,0,0,0,8-17c1.85-6.36,2.2-12.74,2.56-19.31a40.86,40.86,0,0,1,1.5-9.65,49.83,49.83,0,0,1,3.73-8.85C396,188,399.6,182.77,402.29,177c3.07-6.54,5.06-13.67,3.69-20.9-.3-1.58-2.71-.91-2.41.66Z"/></g><g class="cls-6"><path class="cls-7" d="M326.88,131.61l-3.66,18.53c-1.18,6-2.54,12-2.4,18.15.27,11.74,5.36,22.54,8.22,33.75,1.67,6.52,2.6,13.34,1.24,20-.32,1.57,2.09,2.24,2.41.66,2.4-11.76-1.66-23.25-5.18-34.33-1.78-5.56-3.47-11.24-4-17.08-.57-6.12.47-12.07,1.65-18.05q2.07-10.49,4.15-21c.31-1.57-2.1-2.25-2.42-.67Z"/></g><g class="cls-6"><path class="cls-7" d="M339.86,140.87a286,286,0,0,1-2.7,44.92c-1,7.41-2.43,14.75-4,22.07-1.49,7.14-3,14.35-3.28,21.66a47.35,47.35,0,0,0,4,22.2c.68,1.46,2.83.19,2.15-1.26-6.13-13.07-3.34-27.94-.52-41.46a315.68,315.68,0,0,0,6.23-43.26q.86-12.42.62-24.87a1.25,1.25,0,0,0-2.5,0Z"/></g><g class="cls-6"><path class="cls-7" d="M344.27,206.65c.59,10-2,19.8-4.81,29.33-2.95,9.86-6,19.69-9,29.52a1.25,1.25,0,0,0,2.41.67c3-10,6.12-20,9.1-30,2.86-9.58,5.36-19.46,4.77-29.54-.09-1.6-2.6-1.61-2.5,0Z"/></g><g class="cls-6"><path class="cls-7" d="M311.73,222.39a152.11,152.11,0,0,0,19.86,45.83c2.57,4,5.34,7.81,8.26,11.53,1,1.27,2.75-.51,1.77-1.77a148.73,148.73,0,0,1-23.52-43c-1.53-4.36-2.84-8.8-4-13.29-.38-1.56-2.8-.9-2.41.67Z"/></g><g class="cls-6"><path class="cls-7" d="M362.94,227.67c-2.52,9.56-5.18,19.08-7.8,28.62a1.25,1.25,0,0,0,2.41.66c2.62-9.53,5.28-19.06,7.8-28.62a1.25,1.25,0,0,0-2.41-.66Z"/></g><g class="cls-6"><path class="cls-7" d="M276.63,297.31a25.36,25.36,0,0,0,15.9-1.28c5.3-2.24,10.32-5.34,15.39-8.06,1.41-.76.15-2.92-1.26-2.16-4.72,2.53-9.37,5.29-14.22,7.55a23,23,0,0,1-15.14,1.54c-1.57-.38-2.24,2-.67,2.41Z"/></g><g class="cls-6"><path class="cls-7" d="M272.1,338c-2.18-3.38-1.66-7.51-1.31-11.32a28.48,28.48,0,0,0,.06-6.46,26.31,26.31,0,0,0-2-6.15c-3.26-8.21-1.93-17.08-.89-25.59a64.45,64.45,0,0,0,.5-15.51c-.19-1.58-2.69-1.6-2.5,0,1.1,9.2-1.36,18.25-1.66,27.41a36.48,36.48,0,0,0,1.59,12.85c.71,2.11,1.78,4.1,2.29,6.27a21.27,21.27,0,0,1,.14,6.71c-.39,4.42-.92,9.12,1.61,13.05.87,1.35,3,.1,2.16-1.26Z"/></g><g class="cls-6"><path class="cls-7" d="M278.29,327.82a37.26,37.26,0,0,1-3.65-3.46c-.55-.6-1.09-1.22-1.6-1.85s-.94-1.21-1.43-1.92a1.25,1.25,0,1,0-2.16,1.26,38.85,38.85,0,0,0,7.08,7.74,1.27,1.27,0,0,0,1.76,0,1.26,1.26,0,0,0,0-1.77Z"/></g><g class="cls-6"><path class="cls-7" d="M318.43,285a42.65,42.65,0,0,0-21.08,22.32c-1.55,3.78-2.22,7.8-3.46,11.68s-3.44,7.93-7.48,9.34c-1.51.53-.86,2.94.67,2.41,7.94-2.78,9.24-11.67,11.28-18.71a39.9,39.9,0,0,1,21.34-24.88c1.45-.69.18-2.84-1.27-2.16Z"/></g><g class="cls-6"><path class="cls-7" d="M349.85,273.53c-3.84.8-7.05,3.05-10.28,5.13s-7.21,4.3-11.27,3.39c-1.56-.35-2.23,2.06-.66,2.41,9,2,14.76-6.84,22.87-8.52,1.58-.32.91-2.73-.66-2.41Z"/></g><g class="cls-6"><path class="cls-7" d="M464.66,151.63c1.85.87,2.64,3,3.45,4.69l3.43,7.32a1.25,1.25,0,1,0,2.16-1.26c-1.21-2.59-2.42-5.17-3.64-7.76-.93-2-2-4.16-4.13-5.15a1.29,1.29,0,0,0-1.71.45,1.26,1.26,0,0,0,.44,1.71Z"/></g><g class="cls-6"><path class="cls-7" d="M445.65,201.8l41.12-55,5.07-6.77a47.28,47.28,0,0,1,4.53-5.55c3.77-3.69,8.63-4.08,13.59-3a134.61,134.61,0,0,1,15.19,4.69c5.1,1.74,10.19,3.48,15.37,5,9.86,2.85,20.17,4.78,30.46,3.87a48.41,48.41,0,0,0,14.39-3.38c4.12-1.71,8.58-5.23,13.28-4.2a4.94,4.94,0,0,1,4.05,4.14,9.53,9.53,0,0,1-1.81,6.49,77.18,77.18,0,0,1-5.06,6.51l-5.33,6.6L568.87,188l-21.48,26.62-10.82,13.41c-1.66,2.07-3.27,4.2-5.07,6.16a13.52,13.52,0,0,1-5.56,4,6.58,6.58,0,0,1-6-.67c-1.26-1-3,.78-1.77,1.77,3.74,2.91,8.72,2,12.29-.75a31,31,0,0,0,5.11-5.32q2.88-3.57,5.77-7.15l22.57-28,22.89-28.38,11.29-14c3-3.78,7.15-7.85,7.2-13,.05-4.77-3.62-7.93-8.25-7.95-5.11,0-9.49,3.48-14.13,5.16-9.95,3.62-20.91,3.39-31.19,1.4-11.34-2.21-22.15-6.43-33.11-10-4.87-1.58-10.06-3.39-15.26-2.82s-8.58,3.65-11.6,7.55c-7.23,9.35-14.19,18.93-21.27,28.4l-21.61,28.87-5.36,7.16c-1,1.29,1.2,2.54,2.16,1.27Z"/></g><g class="cls-6"><path class="cls-7" d="M602.52,142.7l-24,3.4a49.7,49.7,0,0,0-10.11,2.06,19.38,19.38,0,0,0-7.93,5.52,107,107,0,0,0-6.63,8.94l-6.93,9.73L533,191.81l-15.87,22.3c-.94,1.32,1.23,2.57,2.15,1.26l27.43-38.51c4.44-6.24,8.81-12.55,13.34-18.72,2-2.74,4.27-5.33,7.36-6.87s6.5-2,9.83-2.49c8.64-1.24,17.28-2.44,25.91-3.67,1.59-.22.91-2.63-.66-2.41Z"/></g><g class="cls-6"><path class="cls-7" d="M509.3,225.05,503,234.32a1.25,1.25,0,0,0,2.16,1.26l6.28-9.26a1.25,1.25,0,1,0-2.16-1.27Z"/></g><g class="cls-6"><path class="cls-7" d="M463.27,242.12l-27.88-.91,1.08,1.88,39.12-59.65,19.7-30c1.6-2.44,3.18-4.9,4.81-7.32,1.3-2,2.8-3.9,5.19-4.51,2.59-.65,5.41.11,8,.58l8.83,1.61,39.48,7.2c1.57.29,2.24-2.12.66-2.41l-36.29-6.62-8.83-1.61c-2.78-.51-5.58-1.16-8.4-1.41a10.11,10.11,0,0,0-7.06,1.67,19.61,19.61,0,0,0-4.41,5.3Q477.11,176.55,457,207.21l-22.71,34.62a1.26,1.26,0,0,0,1.08,1.88l27.88.91c1.61,0,1.61-2.45,0-2.5Z"/></g><g class="cls-6"><path class="cls-7" d="M434.81,241.61a35.21,35.21,0,0,1-5.16-2.62,19.91,19.91,0,0,1-4.56-3.43c-1.35-1.5-.57-3.1.34-4.62,1.09-1.83,2.21-3.66,3.31-5.49a1.25,1.25,0,0,0-2.16-1.26c-1.28,2.13-2.69,4.22-3.84,6.43-1,2-1.34,4.14,0,6a18.07,18.07,0,0,0,5.07,4.16,39.31,39.31,0,0,0,6.3,3.21,1.25,1.25,0,1,0,.67-2.41Z"/></g><g class="cls-6"><path class="cls-7" d="M435.47,209.73c3.79,1,8.88,1.68,11-2.54,2-3.86-1.71-6.59-4.88-7.83-4.51-1.77-9.11-3.59-13.73-5-3.79-1.16-8.29-1.07-10.72,2.52-.91,1.33,1.25,2.58,2.15,1.26,1.92-2.82,5.84-2.06,8.56-1.16,3.4,1.14,6.74,2.47,10.1,3.71,1.91.7,6.79,1.76,6.55,4.58-.11,1.36-1.53,2.37-2.75,2.67-1.87.46-3.85-.13-5.66-.61a1.26,1.26,0,0,0-.66,2.42Z"/></g><g class="cls-6"><path class="cls-7" d="M427.08,216.7a6.16,6.16,0,0,0,9.48-1.26c2.26-3.86-.33-7.47-3.41-9.81a79.73,79.73,0,0,0-12.51-7.75c-4-2-8.7-3.49-13.13-1.94-4.17,1.45-7.25,5.79-5.87,10.25.48,1.54,2.89.88,2.41-.66-1.34-4.34,2.87-7.49,6.77-7.71,4.55-.26,8.8,2.22,12.61,4.42,2,1.17,4,2.43,5.94,3.75,1.65,1.14,3.57,2.31,4.75,4a3.8,3.8,0,0,1-.24,4.9,3.65,3.65,0,0,1-5,.05c-1.19-1.08-3,.68-1.76,1.77Z"/></g><g class="cls-6"><path class="cls-7" d="M403.79,219.88a27,27,0,0,1,9.79,1.76c2.94,1.13,5.48,3.28,8.54,4.06,2.4.61,5.24.2,6.8-1.89a6.58,6.58,0,0,0,.06-7.11c-1.45-2.47-4-4-6.37-5.54a51.11,51.11,0,0,0-8.33-4.5c-5.12-2.07-11-2.6-16.09-.17-6.09,2.91-7.82,9.47-8.93,15.58-.29,1.57,2.12,2.25,2.41.66.85-4.64,1.81-10,5.9-13,3.83-2.78,9-2.89,13.39-1.61a33.31,33.31,0,0,1,7.41,3.33,45.36,45.36,0,0,1,6.5,4.29c1.64,1.39,3.3,3.64,2.41,5.91-1,2.52-4.3,1.88-6.19,1-2.74-1.3-5.2-2.93-8.11-3.88a29.53,29.53,0,0,0-9.19-1.4,1.25,1.25,0,0,0,0,2.5Z"/></g><g class="cls-6"><path class="cls-7" d="M395.39,237.93a10.73,10.73,0,0,1,6.77-4.27c3-.57,5.32.5,8,1.47,2.35.83,5.36,1,7.12-1.12s.87-5.19-1-6.93c-2.14-2-5.34-3.24-8-4.39a27.2,27.2,0,0,0-9.27-2.44c-5.78-.31-11.4,2.28-13.76,7.77-2.78,6.44-.47,13.42,3.14,19,.87,1.34,3,.09,2.16-1.26-2.89-4.46-5.06-9.84-3.57-15.19,1.45-5.19,6-7.9,11.24-7.86a22.84,22.84,0,0,1,8.05,1.82,35.61,35.61,0,0,1,7.62,3.78,3.92,3.92,0,0,1,1.85,2.85c0,1.34-1.09,2-2.28,2.05-2.47.19-4.76-1.62-7.16-2a13.35,13.35,0,0,0-13.13,5.48c-.93,1.32,1.24,2.57,2.16,1.26Z"/></g><g class="cls-6"><path class="cls-7" d="M392.25,297.19c-6.82-2.7-10.49-9.71-12.49-16.35a71.13,71.13,0,0,1-2.7-11.59,10.25,10.25,0,0,1,.75-6,17.08,17.08,0,0,1,3.35-4.23c3.4-3.4,6.86-6.74,10.3-10.11,1.15-1.12-.62-2.89-1.77-1.76-3.38,3.32-6.79,6.61-10.15,10-3,3-5.23,6.18-5.11,10.55a34.26,34.26,0,0,0,1,6.37c.49,2.13,1,4.27,1.57,6.38a37.19,37.19,0,0,0,5.05,11.41,21.18,21.18,0,0,0,9.51,7.77c1.49.59,2.14-1.83.66-2.41Z"/></g><g class="cls-6"><path class="cls-7" d="M341.5,330.69l8.2-42.85,2.05-10.72c.61-3.18,1.17-6.4,2.08-9.51a22.31,22.31,0,0,1,10.71-13.75c6.62-3.64,14.51-3.81,21.72-2.06,1.56.38,2.23-2,.66-2.41-6.73-1.63-14-1.75-20.52.86a24.43,24.43,0,0,0-13,11.61c-3,6.14-3.78,13.3-5.05,19.95l-4.38,22.89L339.09,330c-.3,1.57,2.11,2.25,2.41.67Z"/></g><g class="cls-6"><path class="cls-7" d="M428.77,241.17C416.52,251,410,266.05,403,279.64l-7.09,13.72c-.74,1.43,1.41,2.69,2.15,1.26,4.06-7.84,8.09-15.69,12.16-23.52,3.43-6.6,7-13.23,11.55-19.13a54.16,54.16,0,0,1,8.81-9c1.26-1-.52-2.76-1.76-1.77Z"/></g><g class="cls-6"><path class="cls-7" d="M422.75,274.58a15,15,0,0,1-4.51-16.3c.53-1.52-1.88-2.17-2.41-.66A17.4,17.4,0,0,0,421,276.35c1.23,1,3-.74,1.77-1.77Z"/></g><g class="cls-6"><path class="cls-7" d="M351.23,361.4c16-2.69,29-13.1,40.61-23.68,5.81-5.28,12-10.5,16.38-17.12A45,45,0,0,0,415,299.3c.73-9.5-1-19-3.41-28.16a1.25,1.25,0,0,0-2.41.66c3.85,14.81,6,31.58-1.87,45.52-3.75,6.63-9.63,11.68-15.17,16.77a158.76,158.76,0,0,1-18.42,15.13c-7,4.7-14.76,8.36-23.13,9.77-1.59.26-.92,2.67.66,2.41Z"/></g><g class="cls-6"><path class="cls-7" d="M445.45,244.16c-.24,7.71-7.12,12.75-12.14,17.67s-9.55,11.58-7.24,18.78c.49,1.53,2.91.88,2.41-.66-2.4-7.49,3.84-13.81,8.81-18.45s10.43-10,10.66-17.34c.05-1.61-2.45-1.61-2.5,0Z"/></g><g class="cls-6"><path class="cls-7" d="M397.91,345.56A124.85,124.85,0,0,0,452.34,336c1.46-.62.82-3-.67-2.41a123.17,123.17,0,0,1-53.76,9.44c-1.6-.08-1.6,2.42,0,2.5Z"/></g><g class="cls-6"><path class="cls-7" d="M365.62,358a365.58,365.58,0,0,0,39.44,5c6.54.47,13.11.6,19.55-.85,6.12-1.37,11.95-3.83,17.78-6.1l21.13-8.24c1.48-.58.84-3-.66-2.41l-18.38,7.16c-5.88,2.3-11.74,4.81-17.83,6.5A57.28,57.28,0,0,1,408,360.73c-6.55-.36-13.09-1-19.6-1.79q-11.1-1.33-22.09-3.35c-1.58-.28-2.25,2.13-.67,2.41Z"/></g><g class="cls-6"><path class="cls-7" d="M433.1,309l12.3,12.75c3.33,3.45,6.72,7.68,11.62,8.8,1.57.36,2.24-2.05.67-2.41-4.69-1.07-8-5.53-11.16-8.82l-11.66-12.09c-1.12-1.16-2.89.61-1.77,1.77Z"/></g><g class="cls-6"><path class="cls-7" d="M454.44,289.36a38.94,38.94,0,0,0,3.19,12.27,1.25,1.25,0,1,0,2.16-1.26,35,35,0,0,1-2.85-11,1.28,1.28,0,0,0-1.25-1.25,1.26,1.26,0,0,0-1.25,1.25Z"/></g><g class="cls-6"><path class="cls-7" d="M450,303.85a17.52,17.52,0,0,0,5.75,8.69,1.29,1.29,0,0,0,1.77,0,1.27,1.27,0,0,0,0-1.77,15.31,15.31,0,0,1-1.77-1.65,12.06,12.06,0,0,1-1.38-1.75,14.47,14.47,0,0,1-2-4.18,1.25,1.25,0,0,0-2.41.66Z"/></g><g class="cls-6"><path class="cls-7" d="M517.24,266.05c13.1,8.3,24.49,20.05,30.07,34.72,5.53,14.51,5.15,31.08-3.34,44.38a39.93,39.93,0,0,1-15.55,14.25c-7.3,3.68-15.58,5-23.68,5.23s-16.9.38-24.46-2.75c-7.15-3-12.08-9.26-15.47-16a61.5,61.5,0,0,1-3.18-46.35,59.24,59.24,0,0,1,2.17-5.59c.66-1.45-1.5-2.73-2.16-1.26a64.19,64.19,0,0,0-1.48,48.79c2.81,7.34,6.95,14.54,13.3,19.36,7,5.28,15.85,6.18,24.31,6.35s17.28-.31,25.45-3a42,42,0,0,0,19.27-12.84c10.47-12.44,13.26-29.32,9.27-44.88-4.14-16.09-14.91-29.5-28.18-39.15-1.65-1.2-3.35-2.34-5.08-3.44-1.36-.86-2.62,1.3-1.26,2.16Z"/></g><g class="cls-6"><path class="cls-7" d="M487.8,280.9a21.54,21.54,0,0,0-17.13,15.69c-2.53,9.94,1.79,20.18,5,29.43l6.13,17.83c.52,1.51,2.94.86,2.41-.67l-5-14.54c-1.61-4.69-3.34-9.37-4.74-14.13-2.49-8.49-3.51-18.21,3-25.23a19.24,19.24,0,0,1,11.06-6c1.59-.26.91-2.67-.66-2.41Z"/></g><g class="cls-6"><path class="cls-7" d="M514.8,226.49c-2.38-3.3-4.38-8-3.73-12.2a3.05,3.05,0,0,1,.8-1.86c.85-.7,2,.08,2.64.66a13.85,13.85,0,0,1,3.34,4.67c3.82,8.28.61,17.56-2.59,25.45-.61,1.5,1.81,2.14,2.41.67,3.13-7.73,5.94-16.26,3.42-24.57-1-3.35-3.1-7.38-6.33-9.08a4,4,0,0,0-4.55.34,6,6,0,0,0-1.69,4.18,20.84,20.84,0,0,0,4.12,13c.93,1.29,3.1.05,2.16-1.26Z"/></g><g class="cls-6"><path class="cls-7" d="M515.79,244.75c1.14,8.37.65,16.86.14,25.26l-.78,12.83c-.24,4.12-.25,8.34-.84,12.42a11.85,11.85,0,0,1-5.12,8.51,10.91,10.91,0,0,1-9.1,1.47,10.46,10.46,0,0,1-6.95-6.28c-1.35-3.7-1.32-8-1.73-11.89-.74-7.11-.7-16-6.51-21.13-1.2-1.06-3,.7-1.77,1.77,2.65,2.33,3.84,5.61,4.52,9,.79,4,1,8.06,1.44,12.07s.44,8.26,2.08,11.94a13,13,0,0,0,7.23,6.58,13.78,13.78,0,0,0,17-6.93c1.78-3.72,1.67-8.06,1.92-12.09l.83-13.84c.61-10.11,1.41-20.27,0-30.35-.21-1.59-2.62-.91-2.41.66Z"/></g><g class="cls-6"><path class="cls-7" d="M509.15,239.36c-8.17-8.05-20-9.26-30.87-10-2.15-.14-4.62-.25-6.33,1.3a4.77,4.77,0,0,0-.88,5.64,7.85,7.85,0,0,0,5.08,4c2.55.82,5.23,1.22,7.8,2a58.6,58.6,0,0,1,16.73,8.37c1.31.94,2.56-1.23,1.26-2.15a61.17,61.17,0,0,0-12.42-6.87,58.48,58.48,0,0,0-6.57-2.25c-2.21-.62-4.56-.91-6.71-1.73-1.66-.63-3.74-2.27-3.15-4.33s3.63-1.59,5.19-1.49A84.82,84.82,0,0,1,494.06,234a29.38,29.38,0,0,1,13.32,7.14c1.15,1.13,2.92-.63,1.77-1.76Z"/></g><g class="cls-6"><path class="cls-7" d="M501.53,249.86a102.74,102.74,0,0,0-15.18-7.56q-4-1.59-8.07-2.83a44.3,44.3,0,0,0-8.23-2c-2.21-.21-4.66.43-5.87,2.44s-.42,4.55,1.13,6.15c1.83,1.88,4.59,2.85,6.9,4l8.53,4.18,19.3,9.47c1.43.71,2.7-1.45,1.26-2.16L471.68,247c-1.91-.94-4.86-1.92-5.5-4.21-.78-2.81,2.85-3,4.67-2.68a82,82,0,0,1,14.2,4.35A98.38,98.38,0,0,1,500.26,252a1.25,1.25,0,0,0,1.27-2.16Z"/></g><g class="cls-6"><path class="cls-7" d="M493,269.86l-17.53-10.42c-2.45-1.46-5.38-2.8-7.24-5-1.35-1.61-2.07-4.68.05-6,1.35-.86.1-3-1.27-2.16a6.05,6.05,0,0,0-2.27,6.94c.89,3,3.65,4.93,6.21,6.47,6.91,4.17,13.86,8.25,20.79,12.37a1.25,1.25,0,0,0,1.26-2.16Z"/></g><g class="cls-6"><path class="cls-7" d="M335.63,351.76a16.11,16.11,0,0,0-7.82-6.72A75.5,75.5,0,0,0,316,341.11a132.65,132.65,0,0,0-42.8-4.22c-1.59.11-1.61,2.61,0,2.5,17.17-1.1,35.07.95,51.26,7,3.57,1.32,7.16,3.2,9,6.68.75,1.42,2.91.15,2.16-1.27Z"/></g><g class="cls-6"><path class="cls-7" d="M265.82,412c2,5.09,6.74,7.93,11.46,10.21,6.38,3.07,12.82,6,19.22,9.06,1.45.68,2.72-1.47,1.27-2.16l-18.24-8.59c-4.31-2-9.43-4.45-11.3-9.19-.58-1.48-3-.83-2.41.67Z"/></g><g class="cls-6"><path class="cls-7" d="M302.54,355.88c8.09-.89,16.26-1.78,24.4-1.14a54.71,54.71,0,0,1,19.94,5.64c11.45,5.64,21.28,13.95,32.36,20.22a61.47,61.47,0,0,0,19.54,7.49c1.58.28,2.25-2.13.67-2.41-12.66-2.22-23.35-9.69-33.77-16.76-10.92-7.39-22.18-14.58-35.53-16.34-9.18-1.2-18.46-.2-27.61.8-1.58.18-1.6,2.68,0,2.5Z"/></g><g class="cls-6"><path class="cls-7" d="M397.18,426.46c3.83-12.39,5.76-25.7,4.36-38.64-.17-1.58-2.67-1.6-2.5,0,1.38,12.75-.5,25.78-4.27,38-.47,1.54,1.94,2.2,2.41.67Z"/></g><g class="cls-6"><path class="cls-7" d="M393.93,383.59c8.33-1.33,19.88-1.93,24.55,6.83,2,3.82,1.88,8.43,1.35,12.6-.63,5-1.83,10-1.23,15.07.18,1.58,2.68,1.6,2.5,0-1-8.14,2.67-16.1,1.15-24.24-1.34-7.21-7.35-11.9-14.35-13.15-4.87-.87-9.79-.29-14.63.48-1.59.25-.91,2.66.66,2.41Z"/></g><g class="cls-6"><path class="cls-7" d="M444.27,401.67A98.61,98.61,0,0,1,406,424,97.38,97.38,0,0,1,393.7,427c-1.58.28-.91,2.69.66,2.42A101.06,101.06,0,0,0,446,403.44c1.17-1.11-.6-2.87-1.77-1.77Z"/></g><g class="cls-6"><path class="cls-7" d="M422.19,403.85A26.93,26.93,0,0,1,435,409.61a1.29,1.29,0,0,0,1.77,0,1.27,1.27,0,0,0,0-1.77,29.31,29.31,0,0,0-13.92-6.4,1.28,1.28,0,0,0-1.54.87,1.27,1.27,0,0,0,.88,1.54Z"/></g><g class="cls-6"><path class="cls-7" d="M443.93,402.3c10.94,12.79,22.16,26.24,26.8,42.76a1.25,1.25,0,0,0,2.41-.67c-4.76-16.94-16.21-30.74-27.44-43.86-1.05-1.22-2.81.55-1.77,1.77Z"/></g><g class="cls-6"><path class="cls-7" d="M441.45,404.53c-.93-5.45,3.82-10.4,7.88-13.32a28.8,28.8,0,0,1,14.58-5.35c1.59-.12,1.61-2.62,0-2.5a31.31,31.31,0,0,0-16.76,6.38c-4.72,3.64-9.19,9.12-8.11,15.46.27,1.58,2.68.91,2.41-.67Z"/></g><g class="cls-6"><path class="cls-7" d="M484,364.62l-16.06,14.72c-2.08,1.91-3.92,4-3.52,7,.37,2.78,2.34,5.1,4.25,7,2.08,2.09,4.28,4,6.26,6.24a69.31,69.31,0,0,1,5.55,7,74.21,74.21,0,0,1,8.27,15.5,73.34,73.34,0,0,1,4.6,19.41l.62-1.07a44.5,44.5,0,0,1-22.06,4.47c-1.61-.09-1.6,2.41,0,2.5a47.06,47.06,0,0,0,23.32-4.82,1.2,1.2,0,0,0,.62-1.08,75.77,75.77,0,0,0-21.08-45.74c-3.16-3.24-11.17-8.64-6.28-13.52,2.72-2.72,5.68-5.23,8.52-7.83l8.76-8c1.19-1.09-.58-2.86-1.77-1.77Z"/></g><g class="cls-6"><path class="cls-7" d="M390.66,427.12c-5.64,5.86-13.83,8.05-21.77,8.06-9.21,0-18.08-3-26.78-5.7s-17.92-5.24-27.24-4.68a34.3,34.3,0,0,0-12.56,3.07c-3.43,1.62-6.81,4.44-7.95,8.19-1.25,4.12,1.14,8.07,4.91,9.75,4.79,2.13,9.88.46,14.51-1.28,1.49-.55.84-3-.67-2.41-3.91,1.47-8.44,3.24-12.56,1.53-3.5-1.45-5.08-5-3.12-8.42s5.79-5.32,9.42-6.47a36.42,36.42,0,0,1,12.54-1.5c17.41.7,33.09,10.86,50.65,10.4,8.21-.21,16.58-2.73,22.39-8.77,1.11-1.16-.65-2.93-1.77-1.77Z"/></g><g class="cls-6"><path class="cls-7" d="M294.61,441.27c-2.38,1.44-4.86,3.09-5.71,5.89a5.33,5.33,0,0,0,2.56,6.36c2.32,1.26,5.15,1.28,7.71,1.54l10.15,1c1.6.16,1.59-2.34,0-2.5l-8.27-.83a44.66,44.66,0,0,1-6.93-.87c-1.84-.48-3.38-1.66-2.89-3.77.54-2.27,2.79-3.56,4.64-4.68,1.37-.83.12-3-1.26-2.16Z"/></g><g class="cls-6"><path class="cls-7" d="M289.1,450.73a4.34,4.34,0,0,0,.37,5.92c1.89,1.93,5,2.31,7.51,2.9q9.06,2.13,18.28,3.51a227.82,227.82,0,0,0,37.45,2.51,233.46,233.46,0,0,0,37.49-3.72c12.74-2.28,25.36-5.23,38-8l43.35-9.39c1.57-.34.9-2.75-.67-2.41-24.24,5.25-48.44,10.77-72.75,15.71A254.31,254.31,0,0,1,362,462.73a226,226,0,0,1-35.76-.79q-10-1-20-2.95-4.92-.94-9.8-2.13a18.36,18.36,0,0,1-4.26-1.27c-1-.52-2.33-2-1.36-3.1s-.71-3-1.76-1.76Z"/></g><g class="cls-6"><path class="cls-7" d="M554.66,320c8.1-3.5,16.55-6.89,25.42-7.73a38.12,38.12,0,0,1,36.92,19A38,38,0,0,1,612.74,374c-5.14,6.12-11.7,10.8-18.19,15.37-14.52,10.23-29.12,20.45-44.84,28.78-15.32,8.13-31.88,14.49-49.17,16.68-2.09.27-4.2.46-6.3.61-1.6.11-1.61,2.61,0,2.5,18.06-1.24,35.45-7,51.61-15,16.7-8.26,32.1-18.85,47.31-29.54,6.81-4.79,13.84-9.51,19.56-15.62a40.61,40.61,0,0,0,8.22-44.11,39.71,39.71,0,0,0-13.89-16.79,40.16,40.16,0,0,0-20.78-7.2c-9.16-.46-18.15,2.23-26.57,5.59-2.12.84-4.21,1.73-6.3,2.63-1.48.64-.2,2.8,1.26,2.16Z"/></g><g class="cls-6"><path class="cls-7" d="M494.57,441.51l30,1.46,14.89.73,7.44.36a45,45,0,0,0,7.06.11c4.13-.46,8.47-3.47,7.51-8.14-.32-1.57-2.73-.91-2.41.66.37,1.8-1,3.46-2.51,4.24a11.86,11.86,0,0,1-5.84.81c-4.5-.16-9-.43-13.49-.65L510,439.76,494.57,439c-1.6-.08-1.6,2.42,0,2.5Z"/></g><g class="cls-6"><path class="cls-7" d="M545.17,434.22l8.26.59c2.55.18,5.32.64,7.83-.08a6,6,0,0,0,4.29-4,4.31,4.31,0,0,0-2.09-4.89c-1.44-.7-2.71,1.45-1.26,2.16a2,2,0,0,1,.39,3.1c-1.16,1.34-3.1,1.52-4.75,1.48-4.22-.09-8.46-.57-12.67-.87-1.61-.11-1.6,2.39,0,2.5Z"/></g><g class="cls-6"><path class="cls-7" d="M549.48,425.48l8.95.44c2.58.12,5.38.57,7.51-1.23a7.53,7.53,0,0,0,2.45-5.54c.07-2.71-1.12-5.26-2.24-7.66-.69-1.45-2.84-.19-2.16,1.26.92,2,1.92,4.06,1.9,6.28a4.75,4.75,0,0,1-2,4.09,5.29,5.29,0,0,1-3,.42l-3.68-.18-7.72-.38c-1.61-.08-1.6,2.42,0,2.5Z"/></g></g></svg>