<svg xmlns="http://www.w3.org/2000/svg" viewBox="0 0 137.41 109.82"><defs><style>.cls-1{fill:#fff;}.cls-2{fill:#5e85be;}.cls-3{fill:#3e5982;}.cls-4{fill:#f0b24a;}.cls-5{fill:#46ae97;}.cls-6{fill:#9ed9d2;}</style></defs><g id="Layer_2" data-name="Layer 2"><path class="cls-1" d="M3.36,72.2,67.52,83.12c2.88.5,6,1.08,8,3.14a9.69,9.69,0,0,1,2.59,5.9,29.27,29.27,0,0,1-.29,6.54c-.29,2.42-.71,5.09-2.61,6.62-2.19,1.75-5.36,1.24-8.09.6-14.29-3.32-28.4-7.4-42.79-10.23-3-.58-5.95-1.11-8.93-1.64L9.22,92.94c-1.09-.19-2.19-.4-3.29-.58-1.37-.23-2.63.42-3.11-1.14s.24-4.53.27-6.16Z"/><path class="cls-1" d="M3,73.4l38.2,6.51,18.61,3.17c3.08.52,6.18,1,9.24,1.6,2.39.49,4.93,1.27,6.38,3.39,1.6,2.35,1.66,5.33,1.43,8.06-.2,2.38-.25,5.53-1.75,7.51-1.61,2.14-4.61,1.73-6.9,1.24-3-.64-6-1.42-9.07-2.17-12.23-3-24.41-6.34-36.81-8.67C19,93.4,15.58,92.81,12.19,92.2l-5-.89A13.75,13.75,0,0,0,5,91.05c-.38,0-.76.12-1-.16s-.1-1.28-.08-1.61c0-.67.11-1.33.19-2,.17-1.41.23-2.79.26-4.21L4.61,72.2a1.25,1.25,0,0,0-2.5,0L1.9,82.59a41.44,41.44,0,0,1-.21,4.17,20.43,20.43,0,0,0-.26,3.66,3.34,3.34,0,0,0,1.3,2.71c.89.58,1.9.36,2.89.44,1.64.14,3.32.59,5,.88l5,.89c13.44,2.39,26.62,5.68,39.85,9,3.31.83,6.64,1.66,10,2.44,2.63.62,5.5,1.41,8.2.7a7,7,0,0,0,4.87-5.16,29.83,29.83,0,0,0,1-8.77A12.12,12.12,0,0,0,77,85.94a12,12,0,0,0-6.85-3.59c-6.55-1.44-13.28-2.31-19.9-3.43L3.69,71C2.12,70.73,1.44,73.13,3,73.4Z"/><path class="cls-2" d="M4,71.4c-.83-.15-1.82-.47-2-1.29a1.45,1.45,0,0,1,.83-1.49,4.15,4.15,0,0,1,1.78-.37,279.94,279.94,0,0,1,34.88.32c5.79.37,11.57,1.52,17.36,2s11.7.73,17.56.79a252.78,252.78,0,0,0,47.24-3.93c3.06-.55,6.41-1.12,9.15.36,2.59,1.4,4,4.38,4.34,7.31a14.43,14.43,0,0,1-2.8,10.24c-3.09,4.09-8.06,6.19-12.8,8.13L91.87,104.72c-5.15,2.1-10.41,4.2-16,4.91s-11-.89-16.5-2l-35.52-7.37-22-4.57C1.1,95.49.18,95.19,0,94.43a1.41,1.41,0,0,1,1.07-1.5,4.2,4.2,0,0,1,2,.08l65.17,13.56c2.84.58,6.12,1.08,8.35-.76s2.4-5.2,2.36-8.12a32.54,32.54,0,0,0-.78-7.88,10.82,10.82,0,0,0-4.34-6.43c-2.13-1.34-4.75-1.61-7.25-1.83L49.83,80c-4.65-.42-9.12-.51-13.45-2.22-4.81-1.91-10.72-2.25-15.79-3.21L12.1,73C9.55,72.47,6.56,71.4,4,71.4Z"/><path class="cls-3" d="M82.58,103c.6-4.21,1.3-8.26.1-12.45a30.69,30.69,0,0,0-2.48-5.81,3.07,3.07,0,0,1-.43-1.23c-.11-1.77,4.7-2,6-2.27l7.86-1.74a5.1,5.1,0,0,1,3.45.06c1.36.72,1.76,2.46,1.93,4a44.76,44.76,0,0,1,.1,8.89c-.18,1.93-.58,4-2.09,5.26a7.89,7.89,0,0,1-2.51,1.21Z"/><path class="cls-4" d="M135.63,68.68c-.19,1.18-1.61,1.65-2.78,1.88l-29.73,5.78L80.6,80.72,69.34,82.91c-1.6.31-3.38.42-4.79,1.22a6.72,6.72,0,0,1-4.22.86,19.88,19.88,0,0,1-4.84-1.28c-6.54-2.38-13.69-4.83-19.6-8.5-5.65-3.5-12-5.63-18.27-7.7C14.2,66.39,10.78,65.27,7.43,64a10.26,10.26,0,0,1-4.35-2.69,10.42,10.42,0,0,1-1.83-5.32A23.45,23.45,0,0,1,1,49.52a9.87,9.87,0,0,1,2-5.11c1.18-1.26,3.25-.78,4.83-.74,4.82.09,9.64.29,14.46.49,10.39,0,20.86.87,31.24,1.3l15.78.66c2.1.09,4.35.45,6.4-.16a34.9,34.9,0,0,1,5.67-1.23l26.47-3.5c5-.66,10-1.31,15-.71s10,2.62,13.17,6.48c-22.67,5.15-45.77,8.14-68.83,11.12a41.87,41.87,0,0,1-7.91.31,20.68,20.68,0,0,1-6.63-1.9L37,50.41a82.25,82.25,0,0,0-10.67-3.63c-5.23-1.27-10.65-1.51-16-1.74a7.18,7.18,0,0,0-3.83.53c-2,1.1-2.47,3.74-2.37,6a22.24,22.24,0,0,0,1,5.73c.64,2,1,2.52,2.86,3.27,4.08,1.66,8.11,3.45,12.16,5.17L44.74,76.21c4.86,2.07,9.82,4.16,15.08,4.64,5.06.46,10.12-.61,15.09-1.66,10-2.12,20.15-4.27,30.21-6.34q7.72-1.59,15.44-3.13c2.57-.52,5.15-1,7.72-1.53a17.44,17.44,0,0,0,3.21-.76c.88-.37,1.41-1,2.51-.73A1.93,1.93,0,0,1,135.63,68.68Z"/><path class="cls-1" d="M75.15,78.66a52.33,52.33,0,0,1-15.92,1.23c-2.65-.27-5.42-1.71-7.91-2.61-2.72-1-5.44-2-8.14-3Q26.62,68,10.46,60.71C9,60.07,7.07,59.29,6.08,58a5.41,5.41,0,0,1-.56-2.54c-.14-1.08-.24-2.16-.32-3.25a7.06,7.06,0,0,1,.39-3.57,5.13,5.13,0,0,1,3.6-2.57A20.87,20.87,0,0,1,13.37,46a29.76,29.76,0,0,1,3.4.09A52.33,52.33,0,0,1,24,47.32,117.18,117.18,0,0,1,38.11,52c8.12,3.11,16.36,6.46,25.11,7.18a59.8,59.8,0,0,0,16.71-1.31c2.71-.55,5.4-1.22,8.07-1.92,2.42-.63,4.89-.73,7.37-1.17l34.88-6.13a3.29,3.29,0,0,1,2.84.38,3.3,3.3,0,0,1,.68,2.45V62.05a5.93,5.93,0,0,1-.72,3.44c-.84,1.19-2.39,1.57-3.81,1.87Z"/><path class="cls-1" d="M74.81,77.46a54.29,54.29,0,0,1-13.92,1.3A19.44,19.44,0,0,1,54.5,77.2c-2.15-.85-4.31-1.65-6.47-2.45q-13.38-4.94-26.5-10.53c-4.06-1.74-8.19-3.42-12.15-5.37a6,6,0,0,1-2.21-1.49,5.8,5.8,0,0,1-.48-2.6c-.21-1.8-.87-4.56.36-6.12s3.7-1.47,5.62-1.42a48,48,0,0,1,7.18.51,76.93,76.93,0,0,1,13.21,3.71c8.47,3.06,16.78,6.88,25.72,8.42,9.32,1.6,18.6.08,27.66-2.21,4.5-1.14,9.12-1.64,13.68-2.44l14.5-2.55,14.49-2.55c.69-.12,2.4-.73,3.06-.22s.34,2.13.34,2.79v7c0,1.88.58,4.87-1.46,5.88-1.86.91-4.29,1.07-6.3,1.49l-14.37,3-28.5,6-7.07,1.48c-1.57.33-.9,2.74.67,2.41l30.94-6.47,15.34-3.21c2.6-.54,5.2-1.07,7.8-1.63,1.84-.4,3.8-1,4.76-2.77s.69-4.35.69-6.38c0-2.56,0-5.13,0-7.69,0-1.74-.31-3.64-2.2-4.27a6.14,6.14,0,0,0-2.89,0l-3.93.69c-10.4,1.83-20.78,3.76-31.19,5.48-2.38.4-4.79.55-7.13,1.14-2.53.63-5,1.28-7.59,1.81A61.54,61.54,0,0,1,64.66,58c-9.8-.47-19-4.49-28-7.91a93.92,93.92,0,0,0-14.56-4.5,39.54,39.54,0,0,0-7-.89c-2.26,0-4.88-.41-7,.38a6,6,0,0,0-3.78,3.57c-.72,2.13-.19,4.6,0,6.78.21,2,.47,3.33,2.15,4.56a28.86,28.86,0,0,0,5.4,2.67q14,6.25,28.31,11.76c4.63,1.78,9.3,3.43,13.91,5.26s9.3,1.86,14.12,1.34c2.46-.26,4.9-.68,7.32-1.17C77.05,79.55,76.39,77.14,74.81,77.46Z"/><path class="cls-1" d="M4.89,20.35Q38.24,24,71.11,31c2,.42,4.1.91,5.61,2.28C79,35.39,79.3,38.85,79.38,42c.08,3.35-.15,7.27-2.9,9.18-2.27,1.57-5.32,1.09-8,.54L11.93,40.24c-1.56-.31-3.16-.34-4.7-.75C5,38.88,4.54,38.15,4.59,35.9Z"/><path class="cls-1" d="M4.89,21.6q18.59,2.05,37,5.14,9.18,1.55,18.31,3.33,4.45.87,8.88,1.8c2.39.5,5.4.79,7.13,2.71s1.8,4.51,1.88,6.81a16.07,16.07,0,0,1-.67,6.51c-1,2.49-3.3,3.19-5.81,3a70.11,70.11,0,0,1-8.7-1.63l-37-7.49L15.67,39.72c-1.66-.33-3.31-.71-5-.93-1.32-.17-3-.19-4.18-.88-.75-.44-.67-1.22-.66-2,0-1.62.06-3.24.1-4.86.07-3.56.13-7.13.2-10.69a1.25,1.25,0,0,0-2.5,0q-.09,5.1-.2,10.2l-.09,4.86a6.73,6.73,0,0,0,.43,3.18c1,1.9,3.44,2.25,5.32,2.5,3.46.46,6.87,1.24,10.29,1.93L59.83,51.2c3.15.64,6.3,1.35,9.46,1.9,2.61.45,5.52.67,7.82-.89,4.08-2.76,3.84-9,3.32-13.29-.3-2.52-1.09-5.07-3.11-6.75S72.2,30,69.53,29.41q-9.83-2.06-19.72-3.82-22.33-4-44.92-6.49C3.3,18.92,3.31,21.42,4.89,21.6Z"/><path class="cls-5" d="M83.39,55.51c-2,.76-4.34,1.83-6.47,2s-4.57-.7-6.66-1.1L62.62,55c-2.16-.41-4.68-1.3-6.88-1.3l-10.36-2q-10.66-2.05-21.3-4.2L5.31,43.74c-.88-.18-1.93-.5-2.15-1.37a1.67,1.67,0,0,1,1.19-1.81,5,5,0,0,1,2.36,0q30.49,5.28,60.78,11.71c3.24.69,7,1.27,9.55-.86s2.65-5.8,2.6-9.06c-.06-3.44-.29-7.3-2.85-9.6-1.75-1.58-4.21-2-6.54-2.45l-26-4.5c-7.78-1.34-15.33-3.26-23.14-4.07L5.18,20.09a2.69,2.69,0,0,1-1.09-.26c-2-1.17,1.5-2.42,2.17-2.63l7.41-2.31,14.46-4.51L57.42,1.26c1.94-.61,3.92-1.39,6-1.24,2.92.21,5.88.91,8.77,1.37q8.58,1.37,17.14,2.84,17.33,3,34.55,6.41c3,.6,6.17,1.29,8.45,3.35,3.45,3.12,3.79,8.33,3.89,13,0,2.52,0,5.24-1.42,7.28-1.32,1.86-3.57,2.77-5.69,3.59Z"/><path class="cls-6" d="M98,26.27c4.42.49,4.6,10.72,3.92,13.78a13.4,13.4,0,0,1-2.52,5.48,15.06,15.06,0,0,1-7.64,4.76,44.78,44.78,0,0,1-9,1.36c2.85-5.5.49-12.14-.46-17.87a4,4,0,0,1,0-1.58c.32-1.25,1.73-1.83,3-2.22l9.84-3.19A7.25,7.25,0,0,1,98,26.27Z"/></g></svg>